<?xml version="1.0" encoding="utf-8"?>
<!-- Generator: Adobe Illustrator 23.0.2, SVG Export Plug-In . SVG Version: 6.00 Build 0)  -->
<svg version="1.1" id="Layer_1" xmlns="http://www.w3.org/2000/svg" xmlns:xlink="http://www.w3.org/1999/xlink" x="0px" y="0px"
	 viewBox="0 0 186.6 49.5" style="enable-background:new 0 0 186.6 49.5;" xml:space="preserve">
<style type="text/css">
	.st0{fill:#010202;}
</style>
<g>
	<g>
		<path class="st0" d="M16.3,6.8V4.5h-3.4v2.3H16.3z M12.4,6.8V4.5H9v2.3H12.4z M8.4,6.8V4.5H5v2.3H8.4z M12.1,48.2h10.6V37.6H12.1
			V48.2z M15.9,41.4h3.8v2.5h-3.8V41.4z M16.4,43.4h2.8v-1.5h-2.8V43.4z M20.2,6.8V4.5h-3.4v2.3H20.2z M32.1,6.8V4.5h-3.4v2.3H32.1z
			 M29.9,16.8h-2.8v5.3h2.8V16.8z M33.7,14.2H23.2v10.6h10.6C33.7,24.8,33.7,14.2,33.7,14.2z M30.3,22.6h-3.8v-6.2h3.8V22.6z
			 M16.4,22.1h2.8v-5.3h-2.8V22.1z M16.4,35.3h2.8v-5.1h-2.8V35.3z M12.1,13.7h10.6V7.2H12.1V13.7z M18.6,10.1
			c0.1-0.1,0.2-0.1,0.4,0c0.5,0.5,1.4,0.5,1.9,0c0.1-0.1,0.2-0.1,0.4,0c0.1,0.1,0.1,0.2,0,0.4C20.9,10.9,20.5,11,20,11
			s-0.9-0.2-1.3-0.5C18.5,10.4,18.5,10.2,18.6,10.1z M17.8,9.3c0.2,0,0.5,0.2,0.5,0.4s-0.2,0.4-0.5,0.4c-0.2,0-0.5-0.2-0.5-0.4
			S17.5,9.3,17.8,9.3z M14.5,10.1c0.1-0.1,0.2-0.1,0.4,0c0.5,0.5,1.4,0.5,1.9,0c0.1-0.1,0.2-0.1,0.4,0c0.1,0.1,0.1,0.2,0,0.4
			c-0.4,0.4-0.8,0.5-1.3,0.5s-0.9-0.2-1.3-0.5C14.4,10.4,14.4,10.2,14.5,10.1z M24.2,4.5h-3.4v2.3h3.4V4.5z M12.1,24.8h10.6V14.2
			H12.1V24.8z M15.9,16.3h3.8v6.2h-3.8V16.3z M12.1,37.1h10.6V25.3H12.1V37.1z M15.9,29.6l1.8-1.8l2,1.8v6.2h-3.8V29.6z M17.7,28.4
			l-1.2,1.2h2.6L17.7,28.4z M40,6.8V4.5h-3.4v2.3H40z M28.1,6.8V4.5h-3.4v2.3H28.1z M45.2,48.2h10.6V37.6H45.2V48.2z M48.5,41.4h3.8
			v2.4h-3.8V41.4z M49,43.4h2.8v-1.5H49V43.4z M4.9,35.3h2.8v-5.1H4.9V35.3z M4.9,43.4h2.8v-1.5H4.9V43.4z M1.1,37.1h10.6V25.3H1.1
			V37.1z M4.4,29.8c0-1.1,0.8-1.9,1.9-1.9c1.1,0,1.9,0.8,1.9,1.9v6H4.4C4.4,35.8,4.4,29.8,4.4,29.8z M43.9,6.8V4.5h-3.4v2.3H43.9z
			 M45.2,37.1h10.6V25.3H45.2V37.1z M48.5,29.8c0-1.1,0.8-1.9,1.9-1.9s1.9,0.8,1.9,1.9v6h-3.8V29.8z M50.4,28.4
			c-0.7,0-1.3,0.6-1.4,1.3h2.7C51.7,28.9,51.1,28.4,50.4,28.4z M49,35.3h2.8v-5.2H49V35.3z M12.6,4.1h3.9l0,0h3.9l0,0l0,0h3.9l0,0
			l0,0h4h23.6L50.4,2H6.3L4.8,4.1H12.6L12.6,4.1z M4.5,4.5H1.1v2.3h3.4V4.5z M51.8,6.8V4.5h-3.4v2.3H51.8z M1.1,14.2v10.6h10.6V14.2
			H1.1z M8.1,22.6H4.3v-6.2h3.8V22.6z M7.7,16.8H4.9v5.3h2.8V16.8z M1.1,48.2h10.6V37.6H1.1V48.2z M4.4,41.4h3.7v2.5H4.3L4.4,41.4
			L4.4,41.4z M1.1,8.5L1.1,8.5v5.3h10.6V7.3H1.1V8.5z M7.2,10.1c0.1-0.1,0.2-0.1,0.4,0c0.5,0.5,1.4,0.5,1.9,0c0.1-0.1,0.2-0.1,0.4,0
			c0.1,0.1,0.1,0.2,0,0.4C9.5,10.9,9.1,11,8.6,11s-0.9-0.2-1.3-0.5C7.1,10.4,7.1,10.2,7.2,10.1z M6.4,9.3c0.2,0,0.5,0.2,0.5,0.4
			s-0.2,0.4-0.5,0.4c-0.2,0-0.5-0.2-0.5-0.4S6.2,9.3,6.4,9.3z M3.1,10.1c0.1-0.1,0.2-0.1,0.4,0c0.5,0.5,1.4,0.5,1.9,0
			c0.1-0.1,0.2-0.1,0.4,0c0.1,0.1,0.1,0.2,0,0.4C5.4,10.9,5,11,4.5,11s-0.9-0.2-1.3-0.5C3,10.4,3,10.2,3.1,10.1z M6.2,28.4
			c-0.7,0-1.3,0.6-1.4,1.3h2.7C7.6,28.9,7,28.4,6.2,28.4z M39.4,28.4l-1.2,1.2h2.6L39.4,28.4z M34.2,37.1h10.6V25.3H34.2V37.1z
			 M37.6,29.6l1.8-1.8l2,1.8v6.2h-3.8V29.6z M38.1,35.3h2.8v-5.1h-2.8V35.3z M38.1,22.1h2.8v-5.3h-2.8V22.1z M32.4,7.3L32.4,7.3
			h-3.9l0,0l0,0h-5.3v6.4h10.6V7.3H32.4L32.4,7.3z M27.7,10.5c-0.4,0.4-0.8,0.5-1.3,0.5s-0.9-0.2-1.3-0.5c-0.1-0.1-0.1-0.2,0-0.4
			c0.1-0.1,0.2-0.1,0.4,0c0.5,0.5,1.4,0.5,1.9,0c0.1-0.1,0.2-0.1,0.4,0C27.7,10.2,27.7,10.4,27.7,10.5z M28.4,10.2
			c-0.2,0-0.5-0.2-0.5-0.4s0.2-0.4,0.5-0.4c0.2,0,0.5,0.2,0.5,0.4S28.6,10.2,28.4,10.2z M31.7,10.5c-0.4,0.4-0.8,0.5-1.3,0.5
			s-0.9-0.2-1.3-0.5c-0.1-0.1-0.1-0.2,0-0.4c0.1-0.1,0.2-0.1,0.4,0c0.5,0.5,1.4,0.5,1.9,0c0.1-0.1,0.2-0.1,0.4,0
			C31.8,10.2,31.8,10.4,31.7,10.5z M34.2,48.2h10.6V37.6H34.2V48.2z M37.6,41.4h3.8v2.4h-3.8V41.4z M38.1,43.4h2.8v-1.5h-2.8V43.4z
			 M36,6.8V4.5h-3.4v2.3H36z M52.3,4.5v2.3h3.5V4.5H52.3z M45.2,13.7h10.6V7.2H45.2V13.7z M51.5,10.1c0.1-0.1,0.2-0.1,0.4,0
			c0.5,0.5,1.4,0.5,1.9,0c0.1-0.1,0.2-0.1,0.4,0c0.1,0.1,0.1,0.2,0,0.4c-0.4,0.4-0.8,0.5-1.3,0.5s-0.9-0.2-1.3-0.5
			C51.4,10.4,51.3,10.2,51.5,10.1z M50.7,9.3c0.2,0,0.5,0.2,0.5,0.4s-0.2,0.4-0.5,0.4c-0.2,0-0.5-0.2-0.5-0.4S50.5,9.3,50.7,9.3z
			 M47.4,10.1c0.1-0.1,0.2-0.1,0.4,0c0.5,0.5,1.4,0.5,1.9,0c0.1-0.1,0.2-0.1,0.4,0c0.1,0.1,0.1,0.2,0,0.4c-0.4,0.4-0.8,0.5-1.3,0.5
			s-0.9-0.2-1.3-0.5C47.3,10.4,47.3,10.2,47.4,10.1z M27.1,43.4h2.8v-1.5h-2.8V43.4z M34.2,24.8h10.6V14.2H34.2V24.8z M37.6,16.3
			h3.8v6.2h-3.8V16.3z M36.3,7.3L36.3,7.3L36.3,7.3h-2.1v6.4h10.6V7.3h-4.6H36.3z M38.6,10.5c-0.4,0.4-0.8,0.5-1.3,0.5
			s-0.9-0.2-1.3-0.5c-0.1-0.1-0.1-0.2,0-0.4c0.1-0.1,0.2-0.1,0.4,0c0.5,0.5,1.4,0.5,1.9,0c0.1-0.1,0.2-0.1,0.4,0
			C38.6,10.2,38.6,10.4,38.6,10.5z M39.3,10.2c-0.2,0-0.5-0.2-0.5-0.4s0.2-0.4,0.5-0.4c0.2,0,0.5,0.2,0.5,0.4
			C39.7,9.9,39.5,10.2,39.3,10.2z M40.4,10.1c0.5,0.5,1.4,0.5,1.9,0c0.1-0.1,0.2-0.1,0.4,0c0.1,0.1,0.1,0.2,0,0.4
			c-0.4,0.4-0.8,0.5-1.3,0.5s-0.9-0.2-1.3-0.5c-0.1-0.1-0.1-0.2,0-0.4C40.2,10,40.3,10,40.4,10.1z M45.2,24.8h10.6V14.2H45.2V24.8z
			 M48.5,16.3h3.8v6.2h-3.8V16.3z M49,22.1h2.8v-5.3H49V22.1z M47.8,6.8V4.5h-3.4v2.3H47.8z M28.5,28.4c-0.7,0-1.3,0.6-1.4,1.3h2.8
			C29.8,28.9,29.2,28.4,28.5,28.4z M27.1,35.3h2.8v-5.1h-2.8V35.3z M23.2,37.1h10.6V25.3H23.2V37.1z M26.6,29.8
			c0-1.1,0.8-1.9,1.9-1.9c1.1,0,1.9,0.8,1.9,1.9v6h-3.8C26.6,35.8,26.6,29.8,26.6,29.8z M23.2,48.2h10.6V37.6H23.2V48.2z M26.6,41.4
			h3.8v2.4h-3.8V41.4z"/>
	</g>
</g>
<g>
	<path class="st0" d="M85.5,25.7c0,2-1.5,3.4-4.3,3.4h-8.3v-2.2h2v-8.3h-2v-2.2h8c2.9,0,4.2,1.5,4.2,3.3c0,1.2-1,2.7-3.3,2.7v0.2
		C84.3,22.6,85.5,24.3,85.5,25.7z M80.3,18.6h-2.5v2.9h2.5c1.2,0,1.8-0.7,1.8-1.4C82.1,19.3,81.5,18.6,80.3,18.6z M77.8,26.9h2.6
		c1.5,0,2.2-0.8,2.2-1.7s-0.6-1.7-2.1-1.7h-2.7V26.9z"/>
	<path class="st0" d="M92.7,23c0-1.6-0.7-2.2-1.9-2.2c-0.6,0-1.1,0.1-1.5,0.4c0.7,0.1,1,0.6,1,1.2c0,0.8-0.7,1.3-1.5,1.3
		c-0.7,0-1.5-0.5-1.5-1.5c0-1.5,1.7-2.5,4-2.5c2.6,0,4.2,0.9,4.2,3.3c0,1.6-0.2,2.7-0.2,3.9c0,0.4,0.1,0.6,0.4,0.6s0.5-0.1,0.5-0.7
		V26h1.1v0.7c0,1.7-0.6,2.8-2.1,2.8c-0.9,0-1.7-0.4-1.7-1.9c0-0.4,0-0.8,0.1-1.1h-0.4c-0.4,2.1-1.9,3.2-3.5,3.2c-1.7,0-3-0.9-3-2.7
		c0-1.6,1.5-3,4.4-3c0.5,0,1,0,1.5,0.1C92.6,23.5,92.7,23.2,92.7,23z M91.5,24.6c-1.5,0-2.1,0.8-2.1,1.5s0.5,1.1,1.2,1.1
		c0.8,0,1.8-0.5,1.9-2.5C92.2,24.7,91.9,24.6,91.5,24.6z"/>
	<path class="st0" d="M101.9,23.3c0.4-2.5,1.8-3.8,3.8-3.8s3.1,1.2,3.1,3.2v4.1h1.2V29h-5.3v-2.2h1.5v-2.9c0-1.6-0.5-2-1.5-2
		c-1.2,0-2.1,0.7-2.1,2v2.8h1.4v2.2h-5.8v-2.2h1.7v-4.8h-1.7v-2.2h3.7c0,0.8-0.1,2.6-0.2,3.4h0.2V23.3z"/>
	<path class="st0" d="M118.6,27.2L118.6,27.2c-0.6,1.2-1.8,2.3-3.6,2.3c-2.4,0-4.4-2.1-4.4-5c0-2.8,1.9-4.9,4.3-4.9
		c1.9,0,2.9,0.9,3.5,2.3h0.1c-0.1-0.5-0.2-1.3-0.2-1.9h4.1v2.2h-1.7v8.2h1.6v2.2h-5.7v-2.2h1.7v-0.7
		C118.3,28.9,118.4,27.9,118.6,27.2z M118.1,24.4c0-1.9-0.9-2.9-2.4-2.9c-1.4,0-2.3,1.1-2.3,2.9c0,1.9,0.8,3,2.2,3
		C117.2,27.5,118.1,26.5,118.1,24.4z"/>
	<path class="st0" d="M128.1,29.4c-2,0-3.1-1.1-3.1-3.2v-4.1h-1.5v-2.2h4.1v5.3c0,1.5,0.5,1.9,1.5,1.9c1.2,0,2.1-0.6,2.1-2.1v-2.8
		h-2.1V20h4.7v7h1.5v2.2h-3.4c0-0.8,0.2-2.6,0.3-3.3H132C131.4,28.4,129.6,29.4,128.1,29.4z"/>
	<path class="st0" d="M144.1,26l1,0.6c-0.8,1.8-2.2,2.7-4.1,2.7c-3,0-5-2.2-5-5c0-3.1,2.5-4.9,5-4.9c3.1,0,4.7,2.1,4.5,5.3h-6.7
		c0.1,1.8,1.3,2.7,2.8,2.7C142.8,27.5,143.6,27,144.1,26z M141.2,21.3c-1.2,0-2.1,0.9-2.2,2.1h4.3C143.2,22.1,142.4,21.3,141.2,21.3
		z"/>
	<path class="st0" d="M147.8,26.9v-4.7h-1.9V21c2.1,0,3.4-0.9,3.3-3.9h1.2v3h3.6v2.2h-3.6v4.1c0,0.6,0.5,1,1.1,1s1.1-0.3,1.1-1v-1.3
		h1.4v1.6c0,1.9-1.6,2.7-3.1,2.7S147.8,28.6,147.8,26.9z"/>
	<path class="st0" d="M161.2,26.9v2.2h-5.7v-2.2h1.7v-4.8h-1.7v-2.2h4.3v7H161.2z M158.6,19.1c-0.9,0-1.5-0.7-1.5-1.5
		s0.7-1.5,1.5-1.5s1.5,0.7,1.5,1.5C160.1,18.5,159.4,19.1,158.6,19.1z"/>
	<path class="st0" d="M166.1,23.3c0.4-2.5,1.8-3.8,3.8-3.8s3.1,1.2,3.1,3.2v4.1h1.2V29h-5.3v-2.2h1.5v-2.9c0-1.6-0.5-2-1.5-2
		c-1.2,0-2.1,0.7-2.1,2v2.8h1.4v2.2h-5.7v-2.2h1.7v-4.8h-1.7v-2.2h3.7c0,0.8-0.1,2.6-0.2,3.4h0.1V23.3z"/>
	<path class="st0" d="M182.6,19.1c-0.8,0-1.3-0.5-1.3-1.3s0.6-1.6,1.7-1.6c1.5,0,2.2,1.1,2.2,2.1s-0.6,2.1-1.9,2.4
		c0.7,0.5,1.2,1.4,1.2,2.6c0,2.1-1.5,3.3-4,3.3c-0.9,0-1.7-0.2-2.3-0.5c-0.6,0-1,0.4-1,0.8c0,0.4,0.3,0.6,0.8,0.6
		c1.4,0,2.5-0.1,4.3-0.1s3,0.8,3,2.2c0,1.8-1.8,3.5-5.3,3.5c-3.2,0-4.5-1-4.5-2.2c0-1.1,0.9-1.7,1.8-1.9c-1.1,0-1.7-0.6-1.7-1.3
		c0-0.9,0.8-1.7,1.7-1.9c-0.7-0.5-1.3-1.3-1.3-2.4c0-2,1.8-3.5,4.2-3.5c1,0,1.6,0.3,2.3,0.3c0.8,0,1.3-0.6,1.3-1.2
		c0-0.1,0-0.3-0.1-0.4C183.5,18.8,183.1,19.1,182.6,19.1z M177.5,29.9c0,0.6,0.9,0.9,2.7,0.9c1.6,0,2.4-0.4,2.4-1
		c0-0.4-0.3-0.7-1.4-0.7h-2.4C177.8,29.1,177.5,29.5,177.5,29.9z M180.6,25.2c1.1,0,1.8-0.7,1.8-1.8c0-1.2-0.7-1.9-1.8-1.9
		s-1.8,0.7-1.8,1.9C178.8,24.6,179.5,25.2,180.6,25.2z"/>
	<path class="st0" d="M77.9,46H80v2.2h-7.1V46H75v-8.3h-2.1v-2.2H80v2.2h-2.1v2.9h5.5v-2.9h-2.1v-2.2h7.1v2.2h-2.2V46h2.2v2.2h-7.1
		V46h2.1v-3.3h-5.5V46z"/>
	<path class="st0" d="M94.7,48.5c-2.9,0-5.2-2.2-5.2-5c0-2.9,2.3-4.9,5.2-4.9c2.9,0,5.2,2.1,5.2,4.9C99.8,46.3,97.5,48.5,94.7,48.5z
		 M94.6,46.8c1.7,0,2.1-0.5,2.1-3.1c0-2.3-0.4-3.1-2.1-3.1c-1.6,0-2.2,0.6-2.2,3.1C92.5,46.1,92.9,46.8,94.6,46.8z"/>
	<path class="st0" d="M105.1,48.5c-2,0-3.1-1.1-3.1-3.2v-4.1h-1.5V39h4.1v5.3c0,1.5,0.5,1.9,1.5,1.9c1.2,0,2.1-0.6,2.1-2.1v-2.8
		h-2.1v-2.2h4.7v7h1.5v2.2h-3.4c0-0.8,0.2-2.6,0.3-3.3H109C108.5,47.5,106.6,48.5,105.1,48.5z"/>
	<path class="st0" d="M116.8,40c-0.7,0-1,0.3-1,0.9c0,2.2,6.1,0.8,6.1,4.7c0,2.1-1.8,2.9-3.6,2.9c-1.3,0-2.4-0.6-2.8-2h-0.1l0.1,1.8
		h-2v-3.4h2.4c0,1.5,0.7,2.3,2.2,2.3c0.8,0,1.3-0.4,1.3-1c0-2.2-6.1-0.8-6.1-4.7c0-1.8,1.6-2.8,3.2-2.8c1.5,0,2.6,0.7,2.7,2.1h0.1
		c0-0.6,0-1.2,0-1.8h2v3.3h-2.4C118.8,40.6,117.9,40,116.8,40z"/>
	<path class="st0" d="M131.1,45.1l1,0.6c-0.8,1.8-2.2,2.7-4.1,2.7c-3,0-5-2.2-5-5c0-3.1,2.5-4.9,5-4.9c3.1,0,4.7,2.1,4.5,5.3h-6.7
		c0.1,1.8,1.3,2.7,2.8,2.7C129.8,46.6,130.6,46.1,131.1,45.1z M128.1,40.4c-1.2,0-2.1,0.9-2.2,2.1h4.3
		C130.2,41.2,129.4,40.4,128.1,40.4z"/>
</g>
</svg>
