<?xml version="1.0" encoding="utf-8"?>
<!-- Generator: Adobe Illustrator 23.0.2, SVG Export Plug-In . SVG Version: 6.00 Build 0)  -->
<svg version="1.1" id="Layer_1" xmlns="http://www.w3.org/2000/svg" xmlns:xlink="http://www.w3.org/1999/xlink" x="0px" y="0px"
	 viewBox="0 0 198.7 53.1" style="enable-background:new 0 0 198.7 53.1;" xml:space="preserve">
<g>
	<g>
		<path class="st0" d="M39.6,17.1h-2.4v2.3h2.4V17.1z M42.5,17.1h-2.3v2.3h2.3V17.1z M45.4,52.4h2.8V41.8h-2.8V52.4z M48.2,19.8
			h-2.8v10.5h2.8V19.8z M23.5,41.3h10.4v-0.5c-0.3-2.6-2.5-4.5-5.2-4.5C25.9,36.3,23.6,38.5,23.5,41.3z M33.9,30.8H23.2V40
			c0.7-2.4,2.9-4.2,5.5-4.2c2.3,0,4.3,1.4,5.2,3.4V30.8L33.9,30.8z M48.2,11.6H47V8.9h-1.6v10.5h2.8V11.6z M43,19.3h2V17h-2V19.3z
			 M37.1,30.3h7.8V19.8h-7.8V30.3z M40.4,24.5c0-0.4,0.3-0.7,0.7-0.7s0.7,0.3,0.7,0.7v3.1h-1.4V24.5L40.4,24.5z M37.1,41.3h7.8V30.8
			h-7.8V41.3z M40.4,35.5c0-0.4,0.3-0.7,0.7-0.7s0.7,0.3,0.7,0.7v3.1h-1.4V35.5L40.4,35.5z M37.1,52.4h7.8V41.8h-7.8V52.4z
			 M40.4,46.5c0-0.4,0.3-0.7,0.7-0.7s0.7,0.3,0.7,0.7v3.1h-1.4V46.5L40.4,46.5z M48.7,41.3h3.9V30.8h-3.9V41.3z M53.1,52.4h2.8V41.8
			h-2.8V52.4z M48.7,30.3h3.9V19.8h-3.9V30.3z M52.6,8.8h-1v2.8h-1.9V8.9h-1v2.7l0,0v7.8h3.9v-7.8l0,0V8.8z M48.7,52.4h3.9V41.8
			h-3.9V52.4z M53.1,41.3h2.8V30.8h-2.8V41.3z M45.4,41.3h2.8V30.8h-2.8V41.3z M54.3,8.8v2.8h-1.2v7.8h2.8V8.8H54.3z M53.1,30.3h2.8
			V19.8h-2.8V30.3z M19.9,17.1h-2.4v2.3h2.4V17.1z M17,17.1h-2.3v2.3H17V17.1z M8.9,52.4h2.8V41.8H8.9V52.4z M8.9,30.3h2.8V19.8H8.9
			V30.3z M11.7,8.8h-1.6v2.8H8.9v7.8h2.8V8.8z M14.2,17.1h-2v2.3h2V17.1L14.2,17.1z M12.2,30.3H20V19.8h-7.8V30.3z M15.4,24.5
			c0-0.4,0.3-0.7,0.7-0.7s0.7,0.3,0.7,0.7v3.1h-1.4V24.5z M12.2,41.3H20V30.8h-7.8V41.3z M15.4,35.5c0-0.4,0.3-0.7,0.7-0.7
			s0.7,0.3,0.7,0.7v3.1h-1.4V35.5z M12.2,52.4H20V41.8h-7.8V52.4z M15.4,46.5c0-0.4,0.3-0.7,0.7-0.7s0.7,0.3,0.7,0.7v3.1h-1.4V46.5z
			 M4.6,41.3h3.9V30.8H4.6V41.3z M1.2,52.4H4V41.8H1.2V52.4z M4.6,30.3h3.9V19.8H4.6V30.3z M8.4,8.8h-1v2.8H5.5V8.9h-1v2.7l0,0v7.8
			h3.9v-7.8l0,0V8.8z M4.6,52.4h3.9V41.8H4.6V52.4z M1.2,41.3H4V30.8H1.2V41.3z M8.9,41.3h2.9V30.8H8.9C8.9,30.8,8.9,41.3,8.9,41.3z
			 M2.8,8.8H1.2v10.5H4v-7.7H2.8L2.8,8.8L2.8,8.8z M1.2,30.3H4V19.8H1.2V30.3z M36,1.6c-0.2-0.2-0.4-0.4-0.5-0.6
			c-0.1,0.2-0.3,0.4-0.5,0.6C34.3,2.1,34.4,3,34.4,3v9.1l0,0v39.8H22.8V3c0,0,0.1-0.9-0.6-1.4C22,1.4,21.8,1.2,21.7,1
			c-0.1,0.2-0.3,0.4-0.5,0.6C20.5,2.1,20.6,3,20.6,3v49.3h16.2V3.1C36.7,3,36.7,2.1,36,1.6z M33.9,12.1h-1.3v2.7h-2v-2.7h-0.9V6.2
			c0-0.5-0.4-0.9-0.9-0.9s-0.9,0.4-0.9,0.9v5.9H27v2.7h-1.7v-2.7h-2v7.2H34C33.9,19.3,33.9,12.1,33.9,12.1z M33.9,19.8H23.2v10.5
			h10.7V19.8z M30.2,21.7c0-0.4,0.3-0.7,0.7-0.7s0.7,0.3,0.7,0.7v3.1h-1.4V21.7L30.2,21.7z M25.8,21.7c0-0.4,0.3-0.7,0.7-0.7
			s0.7,0.3,0.7,0.7v3.1h-1.3v-3.1H25.8z M25.8,29.1V26c0-0.4,0.3-0.7,0.7-0.7s0.7,0.3,0.7,0.7v3.1H25.8z M30.2,29.1V26
			c0-0.4,0.3-0.7,0.7-0.7s0.7,0.3,0.7,0.7v3.1H30.2z"/>
	</g>
</g>
<g>
	<path class="st0" d="M78.1,30.8h2.1V33h-7.1v-2.2h2.1v-8.3h-2.1v-2.2h7.1v2.2h-2.1v2.9h5.5v-2.9h-2.1v-2.2h7.1v2.2h-2.2v8.3h2.2V33
		h-7.1v-2.2h2.1v-3.2h-5.5V30.8z"/>
	<path class="st0" d="M96.3,26.9c0-1.6-0.7-2.2-1.9-2.2c-0.6,0-1.1,0.1-1.5,0.4c0.7,0.1,1,0.6,1,1.2c0,0.8-0.7,1.3-1.5,1.3
		c-0.7,0-1.5-0.5-1.5-1.5c0-1.5,1.7-2.5,4-2.5c2.6,0,4.2,0.9,4.2,3.3c0,1.6-0.2,2.7-0.2,3.9c0,0.4,0.1,0.6,0.4,0.6s0.5-0.1,0.5-0.7
		v-0.8h1.1v0.7c0,1.7-0.6,2.8-2.1,2.8c-0.9,0-1.7-0.4-1.7-1.9c0-0.4,0-0.8,0.1-1.1H97c-0.4,2.1-1.9,3.2-3.5,3.2c-1.7,0-3-0.9-3-2.7
		c0-1.6,1.5-3,4.4-3c0.5,0,1,0,1.5,0.1C96.3,27.5,96.3,27.2,96.3,26.9z M95.2,28.6c-1.5,0-2.1,0.8-2.1,1.5s0.5,1.1,1.2,1.1
		c0.8,0,1.8-0.5,1.9-2.5C95.8,28.6,95.5,28.6,95.2,28.6z"/>
	<path class="st0" d="M105.3,27.2h0.2c0.3-2.2,1.6-3.6,3.4-3.6c1.6,0,2.3,1.1,2.3,2.6c0,0.1,0,0.4,0,0.6h0.1
		c0.2-2.1,1.8-3.2,3.4-3.2c1.9,0,2.9,1.2,2.9,3.2v4.1h1.3v2.2h-5.1v-2.2h1.2v-3c0-1.5-0.4-2-1.3-2c-1.1,0-1.8,0.6-1.8,2v2.9h1.2V33
		h-5v-2.2h1.2v-3.1c0-1.5-0.3-1.9-1.3-1.9c-1.1,0-1.8,0.7-1.8,2.1v2.9h1.2V33h-5.5v-2.2h1.7V26h-1.7v-2.2h3.7
		C105.5,24.7,105.4,26.5,105.3,27.2z"/>
	<path class="st0" d="M123.2,25.9L123.2,25.9c0.7-1.4,1.7-2.4,3.6-2.4c2.4,0,4.3,2,4.3,5c0,2.8-2,5-4.4,5c-1.8,0-3-1-3.4-2.2h-0.1
		c0.1,0.9,0.3,2.1,0.3,3.1h1.7v2.2h-5.8v-2.2h1.7v-8.3h-1.7v-2.2h4.1C123.4,24.6,123.3,25.4,123.2,25.9z M123.6,28.5
		c0,2,0.9,3.1,2.4,3.1c1.4,0,2.2-1.2,2.2-3.1c0-1.8-0.9-2.9-2.3-2.9C124.4,25.6,123.6,26.5,123.6,28.5z"/>
	<path class="st0" d="M133.5,30.8v-4.7h-1.9v-1.2c2.1,0,3.4-0.9,3.3-3.9h1.2v3h3.6v2.2h-3.6v4.3c0,0.6,0.5,1,1.1,1s1.1-0.3,1.1-1
		v-1.3h1.4v1.6c0,1.9-1.6,2.7-3.1,2.7C135.1,33.4,133.5,32.5,133.5,30.8z"/>
	<path class="st0" d="M145.9,33.4c-2.9,0-5.2-2.2-5.2-5c0-2.9,2.3-4.9,5.2-4.9s5.2,2.1,5.2,4.9C151.1,31.1,148.8,33.4,145.9,33.4z
		 M145.9,31.6c1.7,0,2.1-0.5,2.1-3.1c0-2.3-0.4-3.1-2.1-3.1c-1.6,0-2.2,0.6-2.2,3.1C143.8,30.9,144.2,31.6,145.9,31.6z"/>
	<path class="st0" d="M155.5,27.3c0.4-2.5,1.8-3.8,3.8-3.8s3.1,1.2,3.1,3.2v4.1h1.2V33h-5.3v-2.2h1.5v-2.9c0-1.6-0.5-2-1.5-2
		c-1.2,0-2.1,0.7-2.1,2v2.8h1.4v2.2h-5.7v-2.2h1.7v-4.8h-1.7v-2.2h3.7c0,0.8-0.1,2.6-0.2,3.4h0.1V27.3z"/>
	<path class="st0" d="M83.3,41.3l-0.1-2.2h2.3v5h-2.4c-0.1-1.8-1.5-2.8-3.1-2.8c-1.8,0-3.6,1.3-3.6,4.2c0,2.8,1.9,4.3,4,4.3
		c1.4,0,2.6-0.7,3.3-2.2l2,1.3c-0.6,1.9-2.6,3.4-5.3,3.4c-4.6,0-7.1-2.7-7.1-6.7c0-4.6,3.3-6.7,6.1-6.7
		C81.1,38.9,82.7,39.7,83.3,41.3L83.3,41.3L83.3,41.3z"/>
	<path class="st0" d="M91.9,52.5c-2.9,0-5.2-2.2-5.2-5c0-2.9,2.3-4.9,5.2-4.9c2.9,0,5.2,2.1,5.2,4.9C97.1,50.2,94.8,52.5,91.9,52.5z
		 M91.9,50.7c1.7,0,2.1-0.5,2.1-3.1c0-2.3-0.4-3.1-2.1-3.1c-1.6,0-2.2,0.6-2.2,3.1C89.7,50,90.2,50.7,91.9,50.7z"/>
	<path class="st0" d="M102.4,52.5c-2,0-3.1-1.1-3.1-3.2v-4.1h-1.5V43h4.1v5.3c0,1.5,0.5,1.9,1.5,1.9c1.2,0,2.1-0.6,2.1-2.1v-2.8
		h-2.1v-2.2h4.7v7h1.5v2.2h-3.4c0-0.8,0.2-2.6,0.3-3.3h-0.2C105.7,51.4,103.9,52.5,102.4,52.5z"/>
	<path class="st0" d="M117.6,42.6c1.5,0,2.3,0.9,2.3,2.1c0,1.1-0.7,1.9-1.8,1.9c-1,0-1.6-0.7-1.6-1.5c0-0.5,0.2-0.8,0.5-1
		c-0.2,0-0.3,0.1-0.6,0.1c-0.7,0.3-1.4,1.3-1.4,2.8v2.9h2.2v2.2h-6.4v-2.2h1.6v-4.8h-1.7v-2.2h3.8c0,0.7-0.1,2-0.2,2.9h0.2
		C114.7,43.9,116,42.6,117.6,42.6z"/>
	<path class="st0" d="M122.9,49.9v-4.7H121V44c2.1,0,3.4-0.9,3.3-3.9h1.2v3h3.6v2.2h-3.6v4.3c0,0.6,0.5,1,1.1,1s1.1-0.3,1.1-1v-1.3
		h1.4v1.6c0,1.9-1.6,2.7-3.1,2.7C124.5,52.5,122.9,51.6,122.9,49.9z"/>
	<path class="st0" d="M134.7,52.2V50h2.1v-8.4h-2.1v-2.2h7.7c2.7,0,5.1,1.4,5.1,4c0,2.1-1.7,4-5.3,4h-2.5V50h2.3v2.2H134.7z
		 M139.7,41.6v3.7h2.1c1.7,0,2.5-0.8,2.5-1.9c0-1-0.6-1.9-2.2-1.9h-2.4V41.6z"/>
	<path class="st0" d="M154.1,46c0-1.6-0.7-2.2-1.9-2.2c-0.6,0-1.1,0.1-1.5,0.4c0.7,0.1,1,0.6,1,1.2c0,0.8-0.7,1.3-1.5,1.3
		c-0.7,0-1.5-0.5-1.5-1.5c0-1.5,1.7-2.5,4-2.5c2.6,0,4.2,0.9,4.2,3.3c0,1.6-0.2,2.7-0.2,3.9c0,0.4,0.1,0.6,0.4,0.6
		c0.2,0,0.5-0.1,0.5-0.7V49h1.1v0.7c0,1.7-0.6,2.8-2.1,2.8c-0.9,0-1.7-0.4-1.7-1.9c0-0.4,0-0.8,0.1-1.1h-0.2
		c-0.4,2.1-1.9,3.2-3.5,3.2c-1.7,0-3-0.9-3-2.7c0-1.6,1.5-3,4.4-3c0.5,0,1,0,1.5,0.1C154.1,46.6,154.1,46.3,154.1,46z M153,47.7
		c-1.5,0-2.1,0.8-2.1,1.5s0.5,1.1,1.2,1.1c0.8,0,1.8-0.5,1.9-2.5C153.7,47.7,153.3,47.7,153,47.7z"/>
	<path class="st0" d="M166,49.9v2.2h-5.7v-2.2h1.7v-8.3h-1.7v-2.2h4.3v10.5H166z"/>
	<path class="st0" d="M173.4,46c0-1.6-0.7-2.2-1.9-2.2c-0.6,0-1.1,0.1-1.5,0.4c0.7,0.1,1,0.6,1,1.2c0,0.8-0.7,1.3-1.5,1.3
		c-0.7,0-1.5-0.5-1.5-1.5c0-1.5,1.7-2.5,4-2.5c2.6,0,4.2,0.9,4.2,3.3c0,1.6-0.2,2.7-0.2,3.9c0,0.4,0.1,0.6,0.4,0.6
		c0.2,0,0.5-0.1,0.5-0.7V49h1.1v0.7c0,1.7-0.6,2.8-2.1,2.8c-0.9,0-1.7-0.4-1.7-1.9c0-0.4,0-0.8,0.1-1.1h-0.2
		c-0.4,2.1-1.9,3.2-3.5,3.2c-1.7,0-3-0.9-3-2.7c0-1.6,1.5-3,4.4-3c0.5,0,1,0,1.5,0.1C173.4,46.6,173.4,46.3,173.4,46z M172.3,47.7
		c-1.5,0-2.1,0.8-2.1,1.5s0.5,1.1,1.2,1.1c0.8,0,1.8-0.5,1.9-2.5C173,47.7,172.6,47.7,172.3,47.7z"/>
	<path class="st0" d="M183.5,43.9c-1.6,0-2.6,1.6-2.6,3.1c0,1.8,1.1,3,2.7,3c0.9,0,1.8-0.4,2.4-1.4l1.5,1.6
		c-0.9,1.5-2.3,2.2-4.2,2.2c-2.9,0-4.8-2.3-4.8-4.9c0-3.1,2.4-5,5-5c1.9,0,3.5,0.8,3.5,2.4c0,1-0.8,1.8-1.8,1.8s-1.7-0.5-1.7-1.6
		c0-0.5,0.2-1,0.6-1.2C183.9,43.9,183.7,43.9,183.5,43.9z"/>
	<path class="st0" d="M196.2,49.1l1,0.6c-0.8,1.8-2.2,2.7-4.1,2.7c-3,0-5-2.2-5-5c0-3.1,2.5-4.9,5-4.9c3.1,0,4.7,2.1,4.5,5.3h-6.7
		c0.1,1.8,1.3,2.7,2.8,2.7C194.9,50.6,195.7,50.1,196.2,49.1z M193.2,44.4c-1.2,0-2.1,0.9-2.2,2.1h4.3
		C195.3,45.2,194.5,44.4,193.2,44.4z"/>
</g>
</svg>
