<?xml version="1.0" encoding="utf-8"?>
<!-- Generator: Adobe Illustrator 23.0.2, SVG Export Plug-In . SVG Version: 6.00 Build 0)  -->
<svg version="1.1" id="Layer_1" xmlns="http://www.w3.org/2000/svg" xmlns:xlink="http://www.w3.org/1999/xlink" x="0px" y="0px"
	 viewBox="0 0 200.7 55.4" style="enable-background:new 0 0 200.7 55.4;" xml:space="preserve">
<style type="text/css">
	.st0{fill:#FFFFFF;}
</style>
<g>
	<rect x="24.5" y="32.2" class="st0" width="3" height="2.4"/>
	<rect x="24.5" y="34.8" class="st0" width="3" height="2.5"/>
	<rect x="27.8" y="34.8" class="st0" width="3" height="2.5"/>
	<rect x="24.5" y="37.6" class="st0" width="3" height="2.4"/>
	<rect x="27.8" y="37.6" class="st0" width="3" height="2.4"/>
	<rect x="24.5" y="29.6" class="st0" width="1.9" height="2.2"/>
	<rect x="27.8" y="19.8" class="st0" width="2.1" height="2.1"/>
	<rect x="26.7" y="27.1" class="st0" width="2.1" height="2.2"/>
	<rect x="24.5" y="27.1" class="st0" width="1.9" height="2.2"/>
	<rect x="27.8" y="32.2" class="st0" width="3" height="2.4"/>
	<rect x="25.6" y="17.6" class="st0" width="2.1" height="2.1"/>
	<rect x="26.7" y="29.6" class="st0" width="2.1" height="2.2"/>
	<rect x="14.9" y="44.4" class="st0" width="25.6" height="1.7"/>
	<polygon class="st0" points="40.4,46.5 14.9,46.5 14.9,46.5 14.9,48.1 40.4,48.1 	"/>
	<rect x="14.9" y="48.4" class="st0" width="25.6" height="1.8"/>
	<path class="st0" d="M36.7,17.1c0-0.4-0.3-0.7-0.7-0.7h-2.5c-0.4,0-0.7,0.3-0.7,0.7s0.4,0.7,0.8,0.7c0.2,0,0.4-0.2,0.4-0.3
		s0.1-0.2,0.2-0.2l0,0c0.1,0,0.2,0.1,0.2,0.2c0,0.3-0.2,0.6-0.6,0.8l-0.2,22.1h2.2l-0.2-22.1c-0.3-0.1-0.5-0.4-0.6-0.8
		c0-0.1,0.1-0.2,0.2-0.2l0,0c0.1,0,0.2,0.1,0.2,0.2c0,0.2,0.2,0.3,0.4,0.3C36.3,17.8,36.7,17.5,36.7,17.1z"/>
	<rect x="28.9" y="29.6" class="st0" width="2" height="2.2"/>
	<polygon class="st0" points="40.4,42.4 36.8,42.4 32.6,42.4 22.7,42.4 18.6,42.4 14.9,42.4 14.9,44.1 40.4,44.1 	"/>
	<polygon class="st0" points="40.4,51.4 40.4,50.3 14.9,50.3 14.9,51.4 14.9,52.1 40.4,52.1 	"/>
	<path class="st0" d="M22,18.2L22.2,40c0.3,0.1,0.5,0.4,0.5,0.7s-0.1,0.5-0.3,0.6c0,0,0,0,0.1,0c0.4,0.2,0.5,0.5,0.6,0.8h9.6
		c0.1-0.2,0.2-0.6,0.6-0.8c0,0,0,0,0.1,0c-0.2-0.1-0.3-0.3-0.3-0.6s0.2-0.6,0.5-0.7l0.2-21.8c-0.6-0.1-1.1-0.6-1.1-1.2
		c0-0.3,0.1-0.5,0.3-0.7h-9.8c0.2,0.2,0.3,0.4,0.3,0.7C23.1,17.7,22.6,18.2,22,18.2z M25.1,17.2h5.2v5.2h-5.2V17.2z M24,32.2v-0.5
		v-5.2h7.3v5.2v0.5v8.3h-7.2L24,32.2L24,32.2z"/>
	<rect x="14.9" y="52.3" class="st0" width="25.6" height="1.7"/>
	<rect x="28.9" y="27.1" class="st0" width="2" height="2.2"/>
	<path class="st0" d="M21.9,16.4h-2.5c-0.4,0-0.7,0.3-0.7,0.7s0.4,0.7,0.8,0.7c0.2,0,0.4-0.2,0.4-0.3s0.1-0.2,0.2-0.2l0,0
		c0.1,0,0.2,0.1,0.2,0.2c0,0.3-0.2,0.6-0.6,0.8l-0.2,22.1h2.2l-0.2-22.1c-0.3-0.1-0.5-0.4-0.6-0.8c0-0.1,0.1-0.2,0.2-0.2l0,0
		c0.1,0,0.2,0.1,0.2,0.2c0,0.2,0.2,0.3,0.4,0.3c0.4,0,0.8-0.3,0.8-0.7C22.6,16.8,22.3,16.4,21.9,16.4z"/>
	<path class="st0" d="M19.1,41.8c-0.2,0.1-0.2,0.2-0.3,0.3h3.6c-0.1-0.1-0.1-0.3-0.3-0.3c-0.4-0.2-0.4-0.6-0.4-0.6
		c0-0.1,0-0.1,0.1-0.2c0.1-0.1,0.1-0.1,0.2-0.1c0.1,0,0.2-0.1,0.2-0.2c0-0.1-0.1-0.2-0.2-0.2h-2.6c-0.1,0-0.2,0.1-0.2,0.2
		c0,0.1,0.1,0.2,0.2,0.2c0.1,0,0.1,0,0.2,0.1c0.1,0.1,0.1,0.1,0.1,0.2C19.5,41.2,19.5,41.5,19.1,41.8z"/>
	<path class="st0" d="M12.2,42h2.1h4c0.1-0.3,0.2-0.6,0.6-0.8c0,0,0,0,0.1,0c-0.2-0.1-0.3-0.3-0.3-0.6s0.2-0.6,0.5-0.7l0.2-21.8
		c-0.6,0-1.1-0.5-1.1-1c0-0.3,0.1-0.5,0.3-0.7h-6.3c0.2,0.2,0.3,0.4,0.3,0.7c0,0.6-0.5,1.2-1.1,1.2l0.2,21.8
		c0.3,0.1,0.5,0.4,0.5,0.7s-0.1,0.5-0.3,0.6c0,0,0,0,0.1,0C12,41.4,12.2,41.8,12.2,42z M14,26.5h2.9v14H14V26.5z"/>
	<rect x="51.4" y="42.4" class="st0" width="1.3" height="3.5"/>
	<rect x="47.9" y="42.4" class="st0" width="1.3" height="3.5"/>
	<rect x="49.6" y="42.4" class="st0" width="1.3" height="3.5"/>
	<rect x="53.1" y="42.4" class="st0" width="1.3" height="3.5"/>
	<rect x="25.6" y="19.8" class="st0" width="2.1" height="2.1"/>
	<polygon class="st0" points="27.7,2.8 10.8,9.6 44.5,9.6 	"/>
	<rect x="40.9" y="46.5" class="st0" width="13.5" height="4.5"/>
	<rect x="40.9" y="42.4" class="st0" width="1.3" height="3.5"/>
	<rect x="44.4" y="42.4" class="st0" width="1.3" height="3.5"/>
	<rect x="46.2" y="42.4" class="st0" width="1.3" height="3.5"/>
	<rect x="42.7" y="42.4" class="st0" width="1.3" height="3.5"/>
	<path class="st0" d="M7.6,10.7l0.3,0.6h1h37.5h1l1-1.6l-0.6-0.2L36.9,5.1l0,0l-9.3-3.8l-8.1,3.3l0,0l-12.6,5L7.6,10.7z M27.7,2.5
		L27.7,2.5l18.1,7.2H9.6L27.7,2.5z"/>
	<rect x="14.4" y="32.3" class="st0" width="2.1" height="2.4"/>
	<rect x="14.4" y="29.6" class="st0" width="2.1" height="2.4"/>
	<rect x="14.4" y="27.1" class="st0" width="2.1" height="2.3"/>
	<rect x="8.9" y="13.8" class="st0" width="37.5" height="2"/>
	<rect x="27.8" y="17.6" class="st0" width="2.1" height="2.1"/>
	<rect x="14.4" y="37.8" class="st0" width="2.1" height="2.3"/>
	<path class="st0" d="M36.1,40.9c0.1,0,0.2-0.1,0.2-0.2s-0.1-0.2-0.2-0.2h-2.6c-0.1,0-0.2,0.1-0.2,0.2c0,0.1,0.1,0.2,0.2,0.2
		c0.1,0,0.1,0,0.2,0.1s0.1,0.1,0.1,0.2c0,0.1-0.1,0.4-0.4,0.6c-0.2,0.1-0.2,0.2-0.3,0.3h3.6c-0.1-0.1-0.1-0.3-0.3-0.3
		C36,41.6,36,41.2,36,41.2C36,41.1,36,41.1,36.1,40.9C35.9,40.9,35.9,40.9,36.1,40.9z"/>
	<path class="st0" d="M8.4,41.8c-0.2,0.1-0.2,0.2-0.3,0.3h3.7c-0.1-0.1-0.1-0.3-0.3-0.3c-0.4-0.2-0.4-0.6-0.4-0.6
		c0-0.1,0-0.1,0.1-0.2c0.1-0.1,0.1-0.1,0.2-0.1s0.2-0.1,0.2-0.2c0-0.1-0.1-0.2-0.2-0.2H8.8c-0.1,0-0.2,0.1-0.2,0.2
		c0,0.1,0.1,0.2,0.2,0.2s0.1,0,0.2,0.1s0.1,0.1,0.1,0.2C8.8,41.2,8.8,41.5,8.4,41.8z"/>
	<rect x="14.4" y="35" class="st0" width="2.1" height="2.4"/>
	<path class="st0" d="M43.9,41.8c-0.2,0.1-0.2,0.2-0.3,0.3h3.6c-0.1-0.1-0.1-0.3-0.3-0.3c-0.4-0.2-0.4-0.6-0.4-0.6
		c0-0.1,0-0.1,0.1-0.2c0.1-0.1,0.1-0.1,0.2-0.1s0.2-0.1,0.2-0.2c0-0.1-0.1-0.2-0.2-0.2h-2.7c-0.1,0-0.2,0.1-0.2,0.2
		c0,0.1,0.1,0.2,0.2,0.2s0.1,0,0.2,0.1c0.1,0.1,0,0.1,0,0.2C44.2,41.2,44.2,41.5,43.9,41.8z"/>
	<path class="st0" d="M10.6,17.2L10.6,17.2c0.1,0,0.2,0.1,0.2,0.2c0,0.2,0.2,0.3,0.4,0.3c0.4,0,0.8-0.3,0.8-0.7s-0.3-0.7-0.7-0.7
		H8.8c-0.4,0-0.7,0.3-0.7,0.7s0.4,0.7,0.8,0.7c0.2,0,0.4-0.2,0.4-0.3s0.1-0.2,0.2-0.2l0,0c0.1,0,0.2,0.1,0.2,0.2
		c0,0.3-0.2,0.6-0.6,0.8L8.9,40.3h2.2l-0.2-22.2c-0.3-0.1-0.5-0.4-0.6-0.8C10.3,17.3,10.5,17.2,10.6,17.2z"/>
	<rect x="2.8" y="42.4" class="st0" width="1.3" height="3.5"/>
	<path class="st0" d="M1,42h6.7c0.1-0.2,0.2-0.6,0.6-0.8c0,0,0,0,0.1,0c-0.2-0.1-0.3-0.3-0.3-0.6s0.2-0.6,0.5-0.7l0.2-21.8
		c-0.6-0.1-1.1-0.6-1.1-1.2c0-0.6,0.4-1.1,1-1.2v-2.6H1.2L1,42L1,42z M7.1,18.8V24H2.6v-5.2H7.1z M2.4,30h4.9v8.5H2.4V30z"/>
	<rect x="4.8" y="30.4" class="st0" width="1.9" height="2.3"/>
	<rect x="6.2" y="42.4" class="st0" width="1.3" height="3.5"/>
	<rect x="3" y="19.3" class="st0" width="1.7" height="2.1"/>
	<rect x="1" y="42.4" class="st0" width="1.3" height="3.5"/>
	<rect x="1" y="46.5" class="st0" width="13.5" height="4.5"/>
	<rect x="4.8" y="33" class="st0" width="1.9" height="2.4"/>
	<rect x="2.8" y="33" class="st0" width="1.9" height="2.4"/>
	<rect x="2.8" y="35.7" class="st0" width="1.9" height="2.3"/>
	<rect x="2.8" y="30.4" class="st0" width="1.9" height="2.3"/>
	<rect x="4.8" y="35.7" class="st0" width="1.9" height="2.3"/>
	<rect x="4.5" y="42.4" class="st0" width="1.3" height="3.5"/>
	<rect x="38.9" y="29.6" class="st0" width="2.1" height="2.4"/>
	<rect x="38.9" y="32.3" class="st0" width="2.1" height="2.4"/>
	<rect x="38.9" y="35" class="st0" width="2.1" height="2.4"/>
	<path class="st0" d="M43.1,42c0.1-0.2,0.2-0.6,0.6-0.8c0,0,0,0,0.1,0c-0.2-0.1-0.3-0.3-0.3-0.6s0.2-0.6,0.5-0.7l0.1-21.8
		C43.5,18,43,17.5,43,16.9c0-0.3,0.1-0.5,0.3-0.7h-6.2c0.2,0.2,0.3,0.4,0.3,0.7c0,0.6-0.5,1.2-1.1,1.2l0.2,21.8
		c0.3,0.1,0.5,0.4,0.5,0.7s-0.1,0.5-0.3,0.6c0,0,0,0,0.1,0c0.4,0.2,0.5,0.5,0.6,0.8h3.8H43.1z M38.5,26.5h2.9v14h-2.9V26.5z"/>
	<rect x="38.9" y="27.1" class="st0" width="2.1" height="2.3"/>
	<rect x="38.9" y="37.8" class="st0" width="2.1" height="2.3"/>
	<rect x="9.7" y="42.4" class="st0" width="1.3" height="3.5"/>
	<rect x="11.4" y="42.4" class="st0" width="1.3" height="3.5"/>
	<rect x="13.1" y="42.4" class="st0" width="1.3" height="3.5"/>
	<rect x="7.9" y="42.4" class="st0" width="1.3" height="3.5"/>
	<rect x="50.8" y="35.7" class="st0" width="1.9" height="2.3"/>
	<rect x="50.8" y="30.4" class="st0" width="1.9" height="2.3"/>
	<rect x="48.6" y="33" class="st0" width="1.9" height="2.4"/>
	<rect x="48.6" y="35.7" class="st0" width="1.9" height="2.3"/>
	<rect x="50.8" y="33" class="st0" width="1.9" height="2.4"/>
	<rect x="8.9" y="11.7" class="st0" width="37.5" height="2"/>
	<rect x="48.6" y="30.4" class="st0" width="1.9" height="2.3"/>
	<rect x="48.8" y="21.5" class="st0" width="1.7" height="2.1"/>
	<path class="st0" d="M44.1,17.8c0.2,0,0.4-0.2,0.4-0.3s0.1-0.2,0.2-0.2l0,0c0.1,0,0.2,0.1,0.2,0.2c0,0.3-0.2,0.6-0.6,0.8l-0.2,22.1
		h2.2l-0.2-22.1c-0.3-0.1-0.5-0.4-0.6-0.8c0-0.1,0.1-0.2,0.2-0.2l0,0c0.1,0,0.2,0.1,0.2,0.2c0,0.2,0.2,0.3,0.4,0.3
		c0.4,0.1,0.8-0.3,0.8-0.7s-0.3-0.7-0.7-0.7H44c-0.4,0-0.7,0.3-0.7,0.7C43.5,17.5,43.8,17.8,44.1,17.8z"/>
	<rect x="48.8" y="19.3" class="st0" width="1.7" height="2.1"/>
	<rect x="50.8" y="21.5" class="st0" width="1.7" height="2.1"/>
	<rect x="50.8" y="19.3" class="st0" width="1.7" height="2.1"/>
	<polygon class="st0" points="1,13 8.4,13 8.4,11.7 8.2,11.7 7.7,11.7 1,11.7 	"/>
	<polygon class="st0" points="54.4,5 38.3,5 49,9.3 48.9,9.6 48,11.3 54.4,11.3 	"/>
	<rect x="3" y="21.5" class="st0" width="1.7" height="2.1"/>
	<rect x="4.8" y="19.3" class="st0" width="1.7" height="2.1"/>
	<polygon class="st0" points="1,11.3 7.4,11.3 7.1,10.6 6.4,9.3 7.2,9 17.1,5 1,5 	"/>
	<path class="st0" d="M47.7,42h6.7V13.1h-7.5v2.7c0.6,0.1,1,0.6,1,1.2c0,0.6-0.5,1.2-1.1,1.2L47,40c0.3,0.1,0.5,0.4,0.5,0.7
		s-0.1,0.5-0.3,0.6c0,0,0,0,0.1,0C47.6,41.4,47.7,41.8,47.7,42z M52.8,18.8V24h-4.5v-5.2H52.8z M48.2,30h4.9v8.5h-4.9V30z"/>
	<rect x="4.8" y="21.5" class="st0" width="1.7" height="2.1"/>
	<polygon class="st0" points="54.4,11.7 47.7,11.7 47.2,11.7 46.9,11.7 46.9,13 54.4,13 	"/>
</g>
<g>
	<path class="st0" d="M78.9,10.2v3.4h2.4v2.2h-7.7v-2.2H76V5.1h-2.4V2.9h7.7v2.2h-2.4v3.2h5.8V5.1h-2.4V2.9H90v2.2h-2.4v8.6H90v2.2
		h-7.7v-2.2h2.4v-3.4L78.9,10.2L78.9,10.2z"/>
	<path class="st0" d="M95.2,13.6h1.4v2.2h-5.7v-2.2h1.8V8.7h-1.8V6.5h4.2L95.2,13.6L95.2,13.6z M95.4,4.1c0,0.8-0.7,1.4-1.4,1.4
		s-1.4-0.7-1.4-1.4c0-0.8,0.7-1.4,1.4-1.4C94.8,2.6,95.4,3.3,95.4,4.1z"/>
	<path class="st0" d="M101.6,13.6h1.4v2.2h-5.7v-2.2h1.8V5.1h-1.8V2.9h4.2L101.6,13.6L101.6,13.6z"/>
	<path class="st0" d="M107.9,13.6h1.4v2.2h-5.7v-2.2h1.8V5.1h-1.8V2.9h4.2L107.9,13.6L107.9,13.6z"/>
	<path class="st0" d="M114.1,7.2c-0.7,0-1.2,0.4-1.2,1.1c0,1,1.2,1.4,2.6,1.7c1.7,0.4,3.8,1,3.8,3.2s-1.7,3-3.5,3
		c-1.3,0-2.6-0.5-3-2.1h-0.1v2H111v-3.4h2.2c0,1.6,0.9,2.4,2.6,2.4c0.7,0,1.2-0.3,1.2-1.1c0-1.1-1-1.4-2.9-1.9
		c-1.7-0.4-3.5-1.1-3.5-3.2c0-1.7,1.4-2.9,3.3-2.9c1.3,0,2.5,0.7,2.8,2.2h0.1V6.1h1.7v3.4h-2.2C116.3,7.8,115.2,7.2,114.1,7.2z"/>
	<path class="st0" d="M121.4,5.1h-1.8V2.9h4.2c0,1-0.3,4.2-0.7,6.2h0.2c0.3-1.6,1.4-3,3.8-3c2.3,0,4.2,2.1,4.2,5.1
		c0,2.8-1.9,5-4.3,5c-2.4,0-3.5-1.2-3.9-2.7h-0.2c-0.2,0.6-0.4,1.4-0.4,2.7h-1.2L121.4,5.1L121.4,5.1z M123.9,11.1
		c0,2,0.8,3.2,2.4,3.2c1.5,0,2.1-1.4,2.1-3.2S127.7,8,126.2,8C124.6,8.1,123.9,9.1,123.9,11.1z"/>
	<path class="st0" d="M143,11c0,2.8-2.3,5.2-5.2,5.2s-5.2-2.4-5.2-5.2c0-1.4,0.6-2.6,1.6-3.5s2.2-1.4,3.7-1.4
		C140.7,6.1,143,8.3,143,11z M135.6,11.2c0,2.5,0.6,3.2,2.2,3.2c1.7,0,2.2-0.7,2.2-3.2c0-2.4-0.6-3.2-2.2-3.2
		C136.3,8,135.6,8.7,135.6,11.2z"/>
	<path class="st0" d="M148.2,10.7v3h2.3v2.2h-6.6v-2.2h1.8V8.8h-1.8V6.6h3.5c0,1-0.1,2.1-0.2,3.8h0.2c0.2-2.8,1.9-4.2,3.4-4.2
		c1.6,0,2.3,1,2.3,2s-0.6,1.8-1.7,1.8c-0.9,0-1.6-0.7-1.6-1.5c0-0.7,0.4-1.2,0.9-1.4C149.4,7.1,148.2,8.2,148.2,10.7z"/>
	<path class="st0" d="M164.1,11c0,2.8-2.3,5.2-5.2,5.2s-5.2-2.4-5.2-5.2c0-1.4,0.6-2.6,1.6-3.5s2.2-1.4,3.7-1.4
		C161.7,6.1,164.1,8.3,164.1,11z M156.6,11.2c0,2.5,0.6,3.2,2.2,3.2c1.7,0,2.2-0.7,2.2-3.2c0-2.4-0.6-3.2-2.2-3.2
		C157.3,8,156.6,8.7,156.6,11.2z"/>
	<path class="st0" d="M168.6,11.6c0,1.6,0.3,2.2,1.6,2.2c1.4,0,2.2-0.7,2.2-2.2V8.8h-2.1V6.6h4.7v7.1h1.5v2.2h-3.2
		c0-1,0.1-2.1,0.2-3.8h-0.2c-0.2,2.9-2.1,4.2-4.1,4.2c-2.2,0-3-1.3-3-3.5V8.6h-1.4V6.4h3.9L168.6,11.6L168.6,11.6z"/>
	<path class="st0" d="M186.3,9.7c0,2.1-1.8,3.4-4.2,3.4c-1,0-1.8-0.3-2.2-0.3c-0.3,0-0.6,0.3-0.6,0.6s0.3,0.7,1.1,0.7
		c1.4,0,2.5-0.2,4-0.2c1.7,0,2.8,1.1,2.8,2.4c0,1.6-1.6,3.4-5.3,3.4c-3.2,0-4.3-1.1-4.3-2.2c0-1,1-2,2.1-2c-1.4-0.1-2-0.6-2-1.4
		c0-0.7,0.7-1.5,1.6-1.8c-0.8-0.4-1.4-1.5-1.4-2.6c0-2.1,1.8-3.7,4.2-3.7c0.6,0,1.1,0.1,1.7,0.3c0.2,0,0.3,0,0.6,0
		c1,0,1.8-0.6,1.8-1.6c0-0.3,0-0.5-0.2-0.8c0,0.9-0.6,1.4-1.4,1.4c-0.7,0-1.2-0.5-1.2-1.3c0-0.9,0.6-1.6,1.7-1.6
		c1.5,0,2.1,1,2.1,2.1c0,1-0.5,2.1-2.1,2.3C185.6,7.4,186.3,8.4,186.3,9.7z M183.2,15.7c-0.8,0-1.7,0.1-2.8,0
		c-0.5,0.1-0.7,0.5-0.7,0.9c0,0.7,0.9,0.9,2.5,0.9c1.1,0,2.3-0.3,2.3-1C184.5,15.9,184.1,15.7,183.2,15.7z M180.7,9.9
		c0,1.3,0.7,1.9,1.9,1.9c1,0,1.9-0.7,1.9-1.9c0-1.3-0.7-2.1-1.9-2.1C181.5,7.9,180.7,8.6,180.7,9.9z"/>
	<path class="st0" d="M191.5,10.3h0.2c0.3-2.9,2-4.2,3.8-4.2c2.2,0,3,1.3,3,3.5v4.1h1.1v2.2h-5.1v-2.2h1.4v-2.9
		c0-1.6-0.3-2.3-1.6-2.3s-2.2,1-2.2,3.1v2.1h1.4v2.2h-5.7v-2.2h1.8V5.1h-1.8V2.9h4.2C192.2,4.5,191.8,7.9,191.5,10.3z"/>
</g>
<g>
	<path class="st0" d="M79.5,32.7c1.3,0,2.6-0.7,3.1-2.2l1.8,1c-0.3,1.8-2.2,3.6-5,3.6c-4.3,0-6.6-2.6-6.6-6.6c0-4.5,3.2-6.4,5.8-6.4
		c1.8,0,3.4,0.9,3.5,2.5h0.2v-2.5h2v5.1h-2c-0.1-1.8-1.5-2.8-3-2.8c-1.7,0-3.4,1.2-3.4,4C75.8,31.3,77.7,32.7,79.5,32.7z"/>
	<path class="st0" d="M91.7,32.1c-0.5,2.2-1.8,3-3.3,3c-1.6,0-2.9-1-2.9-2.7c0-1.5,1.2-2.9,4.2-2.9c0.5,0,1,0,1.5,0.1v-0.9
		c0-1-0.7-1.4-1.5-1.4c-1,0-1.3,0.4-1.3,1.4H86c0-0.2,0-0.3,0-0.5c0-1.9,1.7-2.8,3.9-2.8c2.1,0,3.9,1,3.9,2.9c0,1.8-0.2,2.7-0.2,4.1
		c0,0.4,0.2,0.5,0.5,0.5s0.6-0.2,0.6-0.9v-0.6h1V32c0,1.7-0.6,2.7-1.9,2.7c-0.7,0-1.7-0.2-1.7-1.9c0-0.5,0-0.7,0-1L91.7,32.1
		L91.7,32.1z M90,30.3c-1.5,0-2,0.8-2,1.6s0.6,1.2,1.3,1.2c0.9,0,1.9-0.6,1.9-2.7C90.7,30.3,90.4,30.3,90,30.3z"/>
	<path class="st0" d="M99.7,26.6c-0.6,0-1.2,0.4-1.2,1c0,1,1.1,1.3,2.5,1.7c1.7,0.4,3.6,1,3.6,3s-1.6,2.8-3.3,2.8
		c-1.2,0-2.5-0.5-2.8-1.9h-0.1V35h-1.7v-3.2h2.1c0,1.5,0.9,2.3,2.5,2.3c0.7,0,1.2-0.3,1.2-1c0-1-0.9-1.3-2.7-1.8
		c-1.6-0.4-3.3-1-3.3-3c0-1.6,1.3-2.8,3.2-2.8c1.2,0,2.4,0.7,2.7,2.1h0.1v-1.9h1.6v3.2H102C101.9,27.1,100.9,26.6,99.7,26.6z"/>
	<path class="st0" d="M106.9,32.5v-4.4h-1.8v-1c1.8,0,3.3-1.2,3.3-3.9h0.9V26h3.4v2.1h-3.4v4c0,1.5,2.4,1.5,2.4,0v-1h1.2v1.4
		C112.8,36,106.9,36,106.9,32.5z"/>
	<path class="st0" d="M117.7,32.7h1.4v2.1h-5.4v-2.1h1.7v-8.1h-1.7v-2.1h4V32.7L117.7,32.7z"/>
	<path class="st0" d="M125.3,33.4c1.1,0,1.9-0.5,2.2-1.3l0.8,0.5c-0.7,1.6-1.9,2.5-3.7,2.5c-3,0-4.7-2-4.7-4.8
		c0-3.2,2.5-4.8,4.8-4.8c2.1,0,4.1,1.2,4.1,3.9c0,0.4,0,0.7,0,1h-6.2C122.5,32.3,123.6,33.4,125.3,33.4z M126.7,29
		c0-1.3-0.8-1.9-1.9-1.9c-1.4,0-2.2,1.1-2.3,2.2h4.2V29L126.7,29z"/>
</g>
<g>
	<path class="st0" d="M141.5,32.6c-0.5,2.2-1.8,3-3.3,3c-1.6,0-2.9-1-2.9-2.7c0-1.5,1.3-2.9,4.2-2.9c0.5,0,1,0,1.5,0.1v-0.9
		c0-1-0.7-1.4-1.5-1.4c-1,0-1.3,0.4-1.3,1.4h-2.4c0-0.2,0-0.3,0-0.5c0-1.9,1.7-2.8,3.9-2.8c2.1,0,3.9,1,3.9,2.9
		c0,1.8-0.2,2.7-0.2,4.1c0,0.4,0.2,0.5,0.5,0.5s0.6-0.2,0.6-0.9v-0.4h1v0.6c0,1.7-0.6,2.7-1.9,2.7c-0.7,0-1.7-0.2-1.7-1.9
		c0-0.5,0-0.7,0-1L141.5,32.6L141.5,32.6z M139.8,30.8c-1.5,0-2,0.8-2,1.6s0.6,1.2,1.3,1.2c0.9,0,1.9-0.6,1.9-2.7
		C140.5,30.9,140.1,30.8,139.8,30.8z"/>
	<path class="st0" d="M149,30h0.2c0.2-2.8,2-4,3.9-4c2.1,0,2.9,1.2,2.9,3.3v3.9h1.1v2.1h-4.8v-2.1h1.4v-2.7c0-1.5-0.3-2.1-1.5-2.1
		c-1.3,0-2.1,0.7-2.1,2.1v2.7h1.4v2.1h-5.4v-2.1h1.7v-4.6h-1.7v-2.1h3.3C149.2,27.5,149.1,28.5,149,30z"/>
	<path class="st0" d="M163.2,25.1V23h4v10.2h1.7v2.1h-3.3c0-0.9,0-1.7,0.1-2.2h-0.2c-0.2,1.4-1.3,2.5-3.6,2.5
		c-2.2,0-4.1-2.1-4.1-4.7c0-2.9,1.8-4.6,3.9-4.6c2.2,0,3.2,1.1,3.6,2.6h0.2c-0.2-0.9-0.4-2.7-0.4-3.8H163.2z M164.9,30.9
		c0-1.9-0.7-3.1-2.3-3.1c-1.5,0-2,1.4-2,3.1s0.7,2.9,2.1,2.9C164.3,33.8,164.9,32.8,164.9,30.9z"/>
</g>
<g>
	<path class="st0" d="M79.2,54.8c-2.8,0-5.9-2-5.9-6.6c0-4.4,3.2-6.4,6-6.4c1.8,0,3.4,0.9,3.8,2.5h0.2v-2.5h2v4.9h-2
		C83.1,45,81.6,44,80,44c-1.8,0-3.7,1.3-3.7,4.2c0,3.1,1.9,4.5,3.6,4.5c1.5,0,2.9-1,3-2.9H80v-1.7h6.9v1.7h-1.8v4.7H84
		c0-1.3-0.2-2.6-0.3-2.8h-0.1C83.3,53.7,81.3,54.8,79.2,54.8z"/>
	<path class="st0" d="M94,51.8c-0.5,2.2-1.8,3-3.3,3c-1.6,0-2.9-1-2.9-2.7c0-1.5,1.3-2.9,4.2-2.9c0.5,0,1,0,1.5,0.1v-0.9
		c0-1-0.7-1.4-1.5-1.4c-1,0-1.3,0.4-1.3,1.4h-2.4c0-0.2,0-0.3,0-0.5c0-1.9,1.7-2.8,3.9-2.8c2.1,0,3.9,1,3.9,2.9
		c0,1.8-0.2,2.7-0.2,4.1c0,0.4,0.2,0.5,0.5,0.5s0.6-0.2,0.6-0.9v-0.6h1v0.6c0,1.7-0.6,2.7-1.9,2.7c-0.7,0-1.7-0.2-1.7-1.9
		c0-0.5,0-0.7,0-1L94,51.8L94,51.8z M92.3,50c-1.5,0-2,0.8-2,1.6c0,0.8,0.6,1.2,1.3,1.2c0.9,0,1.9-0.6,1.9-2.7
		C93,50.1,92.6,50,92.3,50z"/>
	<path class="st0" d="M102.3,49.6v2.8h2.2v2.1h-6.2v-2.1h1.7v-4.7h-1.7v-2.1h3.3c0,1-0.1,2-0.2,3.6h0.2c0.2-2.7,1.8-3.9,3.2-3.9
		c1.5,0,2.2,1,2.2,1.9s-0.6,1.7-1.6,1.7c-0.8,0-1.5-0.6-1.5-1.5c0-0.6,0.4-1.1,0.9-1.4C103.5,46.2,102.3,47.3,102.3,49.6z"/>
	<path class="st0" d="M112.9,44.3v-2.1h4v10.2h1.7v2.1h-3.3c0-0.9,0-1.7,0.1-2.2h-0.2c-0.2,1.4-1.3,2.5-3.6,2.5
		c-2.2,0-4.1-2.1-4.1-4.7c0-2.9,1.8-4.6,3.9-4.6c2.2,0,3.2,1.1,3.6,2.6h0.2c-0.2-0.9-0.4-2.7-0.4-3.8H112.9z M114.5,50.1
		c0-1.9-0.7-3.1-2.3-3.1c-1.5,0-2,1.4-2,3.1s0.7,2.9,2.1,2.9C113.9,53,114.5,52,114.5,50.1z"/>
	<path class="st0" d="M124.7,53.1c1.1,0,1.9-0.5,2.2-1.3l0.8,0.5c-0.7,1.6-1.9,2.5-3.7,2.5c-3,0-4.7-2-4.7-4.8
		c0-3.2,2.5-4.8,4.8-4.8c2.1,0,4.1,1.2,4.1,3.9c0,0.4,0,0.7,0,1H122C121.9,52.1,123,53.1,124.7,53.1z M126.2,48.7
		c0-1.3-0.8-1.9-1.9-1.9c-1.4,0-2.2,1.1-2.3,2.2h4.2V48.7z"/>
	<path class="st0" d="M132,49.2h0.2c0.2-2.8,2-4,3.9-4c2.1,0,2.9,1.2,2.9,3.3v3.9h1.1v2.1h-4.8v-2.1h1.4v-2.7c0-1.5-0.3-2.1-1.5-2.1
		c-1.3,0-2.1,0.7-2.1,2.1v2.7h1.4v2.1h-5.4v-2.1h1.7v-4.6h-1.7v-2.1h3.3C132.2,46.7,132.2,47.7,132,49.2z"/>
	<path class="st0" d="M144.7,46.3c-0.6,0-1.2,0.4-1.2,1c0,1,1.1,1.3,2.5,1.7c1.7,0.4,3.6,1,3.6,3s-1.7,2.8-3.3,2.8
		c-1.2,0-2.5-0.5-2.8-1.9h-0.2v1.8h-1.7v-3.2h2.1c0,1.5,0.9,2.3,2.5,2.3c0.7,0,1.2-0.3,1.2-1c0-1-0.9-1.3-2.7-1.8
		c-1.6-0.4-3.3-1-3.3-3c0-1.6,1.3-2.8,3.2-2.8c1.2,0,2.4,0.7,2.7,2.1h0.1v-1.9h1.6v3.2h-2.1C146.8,46.9,145.7,46.3,144.7,46.3z"/>
</g>
</svg>
