<?xml version="1.0" encoding="utf-8"?>
<!-- Generator: Adobe Illustrator 23.0.2, SVG Export Plug-In . SVG Version: 6.00 Build 0)  -->
<svg version="1.1" id="Layer_1" xmlns="http://www.w3.org/2000/svg" xmlns:xlink="http://www.w3.org/1999/xlink" x="0px" y="0px"
	 viewBox="0 0 182.9 58" style="enable-background:new 0 0 182.9 58;" xml:space="preserve">
<style type="text/css">
	.st0{fill:#FFFFFF;}
</style>
<g>
	<g>
		<path class="st0" d="M17.2,21.5h-1.8v3.6h1.8V21.5z M34.2,46.1h10.6V34.2H34.2V46.1z M37,35.9h5.2V45H37V35.9z M39.7,40.2h1.8
			v-3.8h-1.8V40.2z M4.3,56h1.9v-3.4H4.4V56H4.3z M6.7,52.2h1.8V49H6.7V52.2z M41.6,21.5h-1.8v3.6h1.8V21.5z M39.7,44.5h1.8v-3.8
			h-1.8V44.5z M39.3,21.5h-1.8v3.6h1.8V21.5z M37.4,44.5h1.8v-3.8h-1.8V44.5z M34.2,33.7h10.6V16.4l0,0v-5.8l0,0V9.4H34.2V33.7z
			 M42.1,30.1h-5.2v-9h5.2V30.1z M37.4,16.3v-0.4h4.3v0.4H37.4z M35.8,12.3h7.6v4h-0.5v-3.6h-6.6v3.6h-0.5V12.3L35.8,12.3z M1.2,56
			h2.7v-7.5h5.2V56h2.7V45.6H1.2V56z M4.3,39.2h1.9v-3.8H4.4v3.8H4.3z M1.2,45.1h10.6V31.8H1.2V45.1z M3.8,34.9H9V44H3.8
			C3.8,44,3.8,34.9,3.8,34.9z M17.2,25.6h-1.8v3.9h1.8V25.6z M19.6,25.6h-1.8v3.9h1.8V25.6z M19.6,21.5h-1.8v3.6h1.8V21.5z
			 M6.7,39.2h1.8v-3.8H6.7V39.2z M4.3,43.5h1.9v-3.8H4.4v3.8H4.3z M41.6,25.6h-1.8v3.9h1.8V25.6z M4.3,52.2h1.9V49H4.4v3.2H4.3z
			 M6.7,43.5h1.8v-3.8H6.7V43.5z M6.7,56h1.8v-3.4H6.7V56z M37.4,40.2h1.8v-3.8h-1.8V40.2z M39.7,57h1.8v-3.4h-1.8V57z M37.4,57h1.8
			v-3.4h-1.8V57z M26.4,57h1.8v-3.4h-1.8V57z M37.4,53.2h1.8V50h-1.8V53.2z M45.3,45.1h10.6V31.8H45.3V45.1z M48,34.9h5.2V44H48
			C48,44,48,34.9,48,34.9z M39.7,53.2h1.8V50h-1.8V53.2z M48.5,39.2h1.8v-3.8h-1.8V39.2z M50.8,43.5h1.8v-3.8h-1.8V43.5z M39.3,25.6
			h-1.8v3.9h1.8V25.6z M48.5,43.5h1.8v-3.8h-1.8V43.5z M50.8,39.2h1.8v-3.8h-1.8V39.2z M15.4,53.2h1.8V50h-1.8V53.2z M17.7,57h1.8
			v-3.4h-1.8V57z M17.7,53.2h1.8V50h-1.8V53.2z M12.2,57h2.7v-7.5h5.2V57h2.7V46.6H12.2V57z M28.5,1.2L11.6,8.1L12,8.8h32.8l0.4-0.7
			L28.5,1.2z M26.4,53.2h1.8V50h-1.8V53.2z M28.8,53.2h1.8V50h-1.8V53.2z M15.4,57h1.8v-3.4h-1.8V57z M28.8,57h1.8v-3.4h-1.8V57z
			 M23.2,57h2.7v-7.5h5.2V57h2.7V46.6H23.2V57z M34.2,57h2.7v-7.5h5.2V57h2.7V46.6H34.2V57z M45.3,17.5h10.6v-6.4H45.3V17.5z
			 M11.7,18H1.1v13.3h10.6V18z M9,30.2H3.8V20.1H9V30.2z M6.2,25.4H4.4v4.3h1.8V25.4z M6.2,20.6H4.4v4.3h1.8V20.6z M8.5,20.6H6.7
			v4.3h1.8V20.6z M8.5,25.4H6.7v4.3h1.8V25.4z M28.8,44.5h1.8v-3.8h-1.8V44.5z M23.2,46.1h10.5V34.2H23.2V46.1z M25.9,35.9h5.2V45
			h-5.2V35.9z M26.4,44.5h1.8v-3.8h-1.8V44.5z M26.4,40.2h1.8v-3.8h-1.8V40.2z M28.8,40.2h1.8v-3.8h-1.8V40.2z M50.8,56h1.8v-3.4
			h-1.8V56z M52.7,20.6h-1.8v4.3h1.8V20.6z M52.7,25.4h-1.8v4.3h1.8V25.4z M50.3,25.4h-1.8v4.3h1.8V25.4z M50.3,20.6h-1.8v4.3h1.8
			V20.6z M45.3,18v13.3h10.6V18H45.3z M53.2,30.2H48V20.1h5.2V30.2z M50.8,52.2h1.8V49h-1.8V52.2z M45.3,56H48v-7.5h5.2V56h2.7V45.6
			H45.3V56L45.3,56z M48.5,56h1.8v-3.4h-1.8V56z M12.2,46.1h10.6V34.2H12.2V46.1z M14.9,35.9h5.2V45h-5.2V35.9z M48.5,52.2h1.8V49
			h-1.8V52.2z M26.4,25.2h1.8v-3.8h-1.8V25.2z M28.7,29.6h1.8v-3.9h-1.8V29.6z M23.2,33.7h10.5V9.4H23.2V33.7z M31.1,30.1h-5.2v-8.8
			c0-1.3,1.2-2.3,2.6-2.3c1.4,0,2.6,1.1,2.6,2.3L31.1,30.1z M26.3,16.3v-0.4h4.3v0.4H26.3z M24.7,12.3h7.6v4h-0.5v-3.6h-6.6v3.6
			h-0.5V12.3z M1.2,17.6h10.6v-6.5H1.2V17.6z M15.4,44.5h1.8v-3.8h-1.8V44.5z M12.2,33.7h10.6V9.4H12.2V33.7z M20,30.1h-5.2v-9H20
			V30.1L20,30.1z M15.3,16.3v-0.4h4.3v0.4H15.3z M13.8,12.3h7.4v4h-0.4v-3.6H14v3.6h-0.4L13.8,12.3L13.8,12.3z M28.7,25.2h1.8v-3.8
			h-1.8V25.2L28.7,25.2z M28.5,19.5c-1,0-1.8,0.7-2.1,1.5h4.1C30.3,20.1,29.5,19.5,28.5,19.5z M26.4,29.6h1.8v-3.9h-1.8V29.6z
			 M17.7,44.5h1.8v-3.8h-1.8V44.5z M17.7,40.2h1.8v-3.8h-1.8V40.2z M15.4,40.2h1.8v-3.8h-1.8V40.2z"/>
	</g>
</g>
<g>
	<path class="st0" d="M79.7,35.9v2.2h-6.8v-2.2H75v-8.3h-2.1v-2.2h6.8v2.2H78v4.1l4.5-4.1h-1.7v-2.2h6.1v2.2h-1.7L81.4,31l4.7,5h1.3
		v2.2H81V36h1.4l-3-3.2l-1.5,1.3v2h1.8V35.9z"/>
	<path class="st0" d="M96.1,35l1,0.6c-0.8,1.8-2.2,2.7-4.1,2.7c-3,0-5-2.2-5-5c0-3.1,2.5-4.9,5-4.9c3.1,0,4.7,2.1,4.5,5.3h-6.7
		c0.1,1.8,1.3,2.7,2.8,2.7C94.8,36.5,95.7,36,96.1,35z M93.2,30.3c-1.2,0-2.1,0.9-2.2,2.1h4.3C95.2,31.1,94.5,30.3,93.2,30.3z"/>
	<path class="st0" d="M101.9,32.3c0.4-2.5,1.8-3.8,3.8-3.8s3.1,1.2,3.1,3.2v4.1h1.2V38h-5.3v-2.2h1.5v-2.9c0-1.6-0.5-2-1.5-2
		c-1.2,0-2.1,0.7-2.1,2v2.8h1.4v2.2h-5.7v-2.2h1.7v-4.8h-1.7v-2.2h3.7c0,0.8-0.1,2.6-0.2,3.4h0.1V32.3z"/>
	<path class="st0" d="M114.4,29.9c-0.7,0-1,0.3-1,0.9c0,2.2,6.1,0.8,6.1,4.7c0,2.1-1.8,2.9-3.6,2.9c-1.3,0-2.4-0.6-2.8-2H113
		l0.1,1.8h-2v-3.4h2.4c0,1.5,0.7,2.3,2.2,2.3c0.8,0,1.3-0.4,1.3-1c0-2.2-6.1-0.8-6.1-4.7c0-1.8,1.6-2.8,3.2-2.8
		c1.5,0,2.6,0.7,2.7,2.1h0.1c0-0.6,0-1.2,0-1.8h2v3.3h-2.4C116.4,30.5,115.6,29.9,114.4,29.9z"/>
	<path class="st0" d="M126.2,35.9v2.2h-5.7v-2.2h1.7v-4.8h-1.7v-2.2h4.3v7H126.2z M123.5,28.1c-0.9,0-1.5-0.7-1.5-1.5
		s0.7-1.5,1.5-1.5s1.5,0.7,1.5,1.5C125.1,27.4,124.4,28.1,123.5,28.1z"/>
	<path class="st0" d="M131,32.3c0.4-2.5,1.8-3.8,3.8-3.8s3.1,1.2,3.1,3.2v4.1h1.2V38h-5.3v-2.2h1.5v-2.9c0-1.6-0.5-2-1.5-2
		c-1.2,0-2.1,0.7-2.1,2v2.8h1.4v2.2h-5.7v-2.2h1.7v-4.8h-1.7v-2.2h3.7c0,0.8-0.1,2.6-0.2,3.4h0.1V32.3z"/>
	<path class="st0" d="M146.9,28c-0.8,0-1.3-0.5-1.3-1.3s0.6-1.6,1.7-1.6c1.5,0,2.2,1.1,2.2,2.1s-0.6,2.1-1.9,2.4
		c0.7,0.5,1.2,1.4,1.2,2.6c0,2.1-1.5,3.3-4,3.3c-0.9,0-1.7-0.2-2.3-0.5c-0.6,0-1,0.4-1,0.8c0,0.4,0.3,0.6,0.8,0.6
		c1.4,0,2.5-0.1,4.3-0.1s3,0.8,3,2.2c0,1.8-1.8,3.5-5.3,3.5c-3.2,0-4.5-1-4.5-2.2c0-1.1,0.9-1.7,1.8-1.9c-1.1,0-1.7-0.6-1.7-1.3
		c0-0.9,0.8-1.7,1.7-1.9c-0.7-0.5-1.3-1.3-1.3-2.4c0-2,1.8-3.5,4.2-3.5c1,0,1.6,0.3,2.3,0.3c0.8,0,1.3-0.6,1.3-1.2
		c0-0.1,0-0.3-0.1-0.4C147.8,27.8,147.4,28,146.9,28z M141.9,38.9c0,0.6,0.9,0.9,2.7,0.9c1.6,0,2.4-0.4,2.4-1c0-0.4-0.3-0.7-1.4-0.7
		h-2.4C142.1,38.1,141.9,38.5,141.9,38.9z M145,34.2c1.1,0,1.8-0.7,1.8-1.8c0-1.2-0.7-1.9-1.8-1.9s-1.8,0.7-1.8,1.9
		C143.1,33.6,143.8,34.2,145,34.2z"/>
	<path class="st0" d="M151.6,35.8v-4.7h-1.9v-1.2c2.1,0,3.4-0.9,3.3-3.9h1.2v3h3.6v2.2h-3.6v4.3c0,0.6,0.5,1,1.1,1s1.1-0.3,1.1-1
		v-1.3h1.4v1.5c0,1.9-1.6,2.7-3.1,2.7S151.6,37.6,151.6,35.8z"/>
	<path class="st0" d="M164.1,38.4c-2.9,0-5.2-2.2-5.2-5c0-2.9,2.3-4.9,5.2-4.9s5.2,2.1,5.2,4.9C169.3,36.2,167,38.4,164.1,38.4z
		 M164.1,36.6c1.7,0,2.1-0.5,2.1-3.1c0-2.3-0.4-3.1-2.1-3.1c-1.6,0-2.2,0.6-2.2,3.1S162.4,36.6,164.1,36.6z"/>
	<path class="st0" d="M173.7,32.3c0.4-2.5,1.8-3.8,3.8-3.8s3.1,1.2,3.1,3.2v4.1h1.2V38h-5.3v-2.2h1.5v-2.9c0-1.6-0.5-2-1.5-2
		c-1.2,0-2.1,0.7-2.1,2v2.8h1.4v2.2h-5.7v-2.2h1.7v-4.8h-1.7v-2.2h3.7c0,0.8-0.1,2.6-0.2,3.4h0.1V32.3z"/>
	<path class="st0" d="M72.9,57.2V55H75v-8.3h-2.1v-2.2h7.7c2.7,0,5.1,1.4,5.1,4c0,2.1-1.7,4-5.3,4h-2.5v2.6h2.3v2.2L72.9,57.2
		L72.9,57.2z M77.9,46.7v3.7H80c1.7,0,2.5-0.8,2.5-1.9c0-1-0.6-1.9-2.2-1.9h-2.4V46.7z"/>
	<path class="st0" d="M92.3,51c0-1.6-0.7-2.2-1.9-2.2c-0.6,0-1.1,0.1-1.5,0.4c0.7,0.1,1,0.6,1,1.2c0,0.8-0.7,1.3-1.5,1.3
		c-0.7,0-1.5-0.5-1.5-1.5c0-1.5,1.7-2.5,4-2.5c2.6,0,4.2,0.9,4.2,3.3c0,1.6-0.2,2.7-0.2,3.9c0,0.4,0.1,0.6,0.4,0.6s0.5-0.1,0.5-0.7
		V54h1.1v0.7c0,1.7-0.6,2.8-2.1,2.8c-0.9,0-1.7-0.4-1.7-1.9c0-0.4,0-0.8,0.1-1.1H93c-0.4,2.1-1.9,3.2-3.5,3.2c-1.7,0-3-0.9-3-2.7
		c0-1.6,1.5-3,4.4-3c0.5,0,1,0,1.5,0.1C92.3,51.6,92.3,51.3,92.3,51z M91.2,52.7c-1.5,0-2.1,0.8-2.1,1.5s0.5,1.1,1.2,1.1
		c0.8,0,1.8-0.5,1.9-2.5C91.9,52.8,91.5,52.7,91.2,52.7z"/>
	<path class="st0" d="M103.6,55v2.2h-5.7V55h1.7v-8.3h-1.7v-2.2h4.3V55H103.6z"/>
	<path class="st0" d="M110.4,51c0-1.6-0.7-2.2-1.9-2.2c-0.6,0-1.1,0.1-1.5,0.4c0.7,0.1,1,0.6,1,1.2c0,0.8-0.7,1.3-1.5,1.3
		c-0.7,0-1.5-0.5-1.5-1.5c0-1.5,1.7-2.5,4-2.5c2.6,0,4.2,0.9,4.2,3.3c0,1.6-0.2,2.7-0.2,3.9c0,0.4,0.1,0.6,0.4,0.6
		c0.2,0,0.5-0.1,0.5-0.7V54h1.1v0.7c0,1.7-0.6,2.8-2.1,2.8c-0.9,0-1.7-0.4-1.7-1.9c0-0.4,0-0.8,0.1-1.1h-0.2
		c-0.4,2.1-1.9,3.2-3.5,3.2c-1.7,0-3-0.9-3-2.7c0-1.6,1.5-3,4.4-3c0.5,0,1,0,1.5,0.1C110.4,51.6,110.4,51.3,110.4,51z M109.3,52.7
		c-1.5,0-2.1,0.8-2.1,1.5s0.5,1.1,1.2,1.1c0.8,0,1.8-0.5,1.9-2.5C110,52.8,109.6,52.7,109.3,52.7z"/>
	<path class="st0" d="M120.5,49c-1.6,0-2.6,1.6-2.6,3.1c0,1.8,1.1,3,2.7,3c0.9,0,1.8-0.4,2.4-1.4l1.5,1.6c-0.9,1.5-2.3,2.2-4.2,2.2
		c-2.9,0-4.8-2.3-4.8-4.9c0-3.1,2.4-5,5-5c1.9,0,3.5,0.8,3.5,2.4c0,1-0.8,1.8-1.8,1.8s-1.7-0.5-1.7-1.6c0-0.5,0.2-1,0.6-1.2
		C120.9,49,120.7,49,120.5,49z"/>
	<path class="st0" d="M133.1,54.1l1,0.6c-0.8,1.8-2.2,2.7-4.1,2.7c-3,0-5-2.2-5-5c0-3.1,2.5-4.9,5-4.9c3.1,0,4.7,2.1,4.5,5.3h-6.7
		c0.1,1.8,1.3,2.7,2.8,2.7C131.9,55.6,132.7,55.1,133.1,54.1z M130.2,49.4c-1.2,0-2.1,0.9-2.2,2.1h4.3
		C132.3,50.2,131.5,49.4,130.2,49.4z"/>
</g>
</svg>
