<?xml version="1.0" encoding="utf-8"?>
<!-- Generator: Adobe Illustrator 23.0.2, SVG Export Plug-In . SVG Version: 6.00 Build 0)  -->
<svg version="1.1" id="Layer_1" xmlns="http://www.w3.org/2000/svg" xmlns:xlink="http://www.w3.org/1999/xlink" x="0px" y="0px"
	 viewBox="0 0 136.8 59.9" style="enable-background:new 0 0 136.8 59.9;" xml:space="preserve">
<style type="text/css">
	.st0{fill:#010202;}
</style>
<g>
	<g>
		<path class="st0" d="M29.1,10.4h1.7V8.7h-1.7V10.4z M26.8,19.6V20h1.7v-2.3C27.6,17.8,26.8,18.6,26.8,19.6z M23.6,39.2h10.6v-2.3
			H23.6V39.2z M29.1,17.6v2.3h1.7v-0.4C30.8,18.6,30.1,17.8,29.1,17.6z M23.6,25.4h10.6V14.8H23.6V25.4z M26.4,19.6
			c0-1.4,1.1-2.4,2.4-2.4s2.4,1.1,2.4,2.4v3.7h-4.9L26.4,19.6L26.4,19.6z M26.8,22.9h1.7v-2.5h-1.7V22.9z M26.8,33.9h1.7v-2.4h-1.7
			V33.9z M26.8,30.6V31h1.7v-2.3C27.6,28.9,26.8,29.6,26.8,30.6z M29.1,33.9h1.7v-2.4h-1.7V33.9z M23.6,36.5h10.6V25.9H23.6V36.5z
			 M26.4,30.6c0-1.4,1.1-2.4,2.4-2.4s2.4,1.1,2.4,2.4v3.8h-4.9C26.4,34.4,26.4,30.6,26.4,30.6z M29.1,28.7V31h1.7v-0.4
			C30.8,29.6,30.1,28.9,29.1,28.7z M29.1,22.9h1.7v-2.5h-1.7V22.9z M29.1,12.6h1.7v-1.7h-1.7V12.6z M23.1,42.8v-3.1h-3
			C21.4,40.3,22.5,41.4,23.1,42.8z M18.1,33.9h1.7v-2.4h-1.7V33.9z M18.1,30.9h1.7v-2.3h-1.7V30.9z M17.8,39.7
			c-2.8,0-5.1,2.3-5.3,5.1V53h10.6v-7.8C23,42.1,20.7,39.7,17.8,39.7z M12.5,39.2h10.6v-2.3H12.5V39.2z M12.5,58.4h10.6v-4.9H12.5
			V58.4z M26.8,12.6h1.7v-1.7h-1.7V12.6z M26.8,10.4h1.7V8.7h-1.7V10.4z M41.7,14.4c0.1-0.6,0-2.4-1.8-3.6c-0.4-0.2-0.8-0.5-1.1-0.7
			c-1.4-0.9-2.4-1.5-2.4-3H21c0,1.4-1.1,2.1-2.4,3c-0.4,0.2-0.7,0.5-1.1,0.7c-1.8,1.2-1.9,3-1.8,3.6H41.7L41.7,14.4z M26.4,8.2h4.9
			v4.9h-4.9V8.2z M15.6,39.7h-3v3.1C13.1,41.4,14.2,40.3,15.6,39.7z M51.1,42h1.7v-2.3h-1.7V42z M45.7,45c0,0.1,0,0.1,0,0.2l0,0v2.3
			h10.6V36.9H45.7V45z M48.5,39.2h4.8v6.2h-4.9C48.5,45.4,48.5,39.2,48.5,39.2z M34.1,42.7v-3h-3C32.5,40.3,33.6,41.4,34.1,42.7z
			 M51.1,33.9h1.7v-2.4h-1.7V33.9z M48.9,44.9h1.7v-2.4h-1.7C48.9,42.5,48.9,44.9,48.9,44.9z M48.9,30.9h1.7v-2.3h-1.7
			C48.9,28.6,48.9,30.9,48.9,30.9z M45.7,58.4h10.6V48H45.7V58.4z M56.2,7.1H51c0,0.5-0.4,1.8-2.8,3.2c-2.7,1.5-2.7,3.5-2.7,4.2
			h10.6L56.2,7.1L56.2,7.1z M56.2,6.6v-5c-1.6,0.7-2.8,2-3.4,3.7l-0.1,0.2h-2.1L51,6.6C51,6.6,56.2,6.6,56.2,6.6z M48.9,42h1.7v-2.3
			h-1.7C48.9,39.7,48.9,42,48.9,42z M51.1,44.9h1.7v-2.4h-1.7V44.9z M48.9,33.9h1.7v-2.4h-1.7C48.9,31.5,48.9,33.9,48.9,33.9z
			 M51.1,30.9h1.7v-2.3h-1.7C51.1,28.7,51.1,30.9,51.1,30.9z M23.6,55.8h10.6v-2.3H23.6V55.8z M23.6,58.4h10.6v-2.1H23.6V58.4z
			 M28.9,39.7c-2.9,0-5.3,2.6-5.3,5.5l0,0V53h10.6v-8.3C33.9,41.9,31.7,39.7,28.9,39.7z M45.7,14.8v10.6h10.6V14.8H45.7z M53.3,23.3
			h-4.9v-6.2h4.9V23.3z M26.7,39.7h-3.1v3.2C24.2,41.4,25.3,40.3,26.7,39.7z M50.6,17.6h-1.7v2.3h1.7V17.6z M15.9,30.9h1.7v-2.3
			h-1.7C15.9,28.6,15.9,30.9,15.9,30.9z M52.8,17.6h-1.7v2.3h1.7V17.6z M50.6,20.4h-1.7v2.4h1.7V20.4z M52.8,20.4h-1.7v2.4h1.7V20.4
			z M45.7,36.5h10.6V25.9H45.7V36.5z M48.5,28.1h4.8v6.2h-4.9C48.5,34.4,48.5,28.1,48.5,28.1z M6.9,30.9h1.7v-2.3H6.9V30.9z
			 M8.6,42.5H6.9v2.4h1.7V42.5z M8.6,39.7H6.9V42h1.7V39.7z M6.4,39.7H4.7V42h1.7V39.7z M1.5,58.4h10.6V53l0,0v-5H1.5V58.4z
			 M6.4,42.5H4.7v2.4h1.7V42.5z M12.1,36.9H1.5v10.6h10.6v-2.3H12c0-0.1,0.1-0.2,0.1-0.4v-5.1l0,0C12.1,39.7,12.1,36.9,12.1,36.9z
			 M9.2,45.4H4.3v-6.2h4.9V45.4z M34.6,25.4h10.6V14.8H34.6V25.4z M37.4,17.2h4.9v6.2h-4.9V17.2z M40.1,19.9h1.7v-2.3h-1.7V19.9z
			 M40.1,22.9h1.7v-2.5h-1.7V22.9z M37.9,22.9h1.7v-2.5h-1.7V22.9z M37.9,19.9h1.7v-2.3h-1.7V19.9z M4.7,33.9h1.7v-2.4H4.7V33.9z
			 M1.5,25.4h10.6V14.8H1.5V25.4z M4.2,17.2h4.9v6.2H4.3L4.2,17.2L4.2,17.2z M4.7,22.9h1.7v-2.5H4.7V22.9z M9.4,10.2
			C7,8.8,6.7,7.6,6.6,7H1.4v7.3H12C12.1,13.8,12.1,11.8,9.4,10.2z M4.7,19.9h1.7v-2.3H4.7V19.9z M7.1,5.5H5L4.9,5.3
			c-0.6-1.7-1.8-3-3.4-3.7v5h5.2L7.1,5.5z M4.7,30.9h1.7v-2.3H4.7V30.9z M6.9,33.9h1.7v-2.4H6.9V33.9z M34.6,36.5h10.6V25.9H34.6
			V36.5z M37.4,28.1h4.9v6.2h-4.9V28.1z M6.9,22.9h1.7v-2.5H6.9V22.9z M6.9,19.9h1.7v-2.3H6.9V19.9z M1.5,36.5h10.6V25.9H1.5V36.5z
			 M4.2,28.1h4.9v6.2H4.2V28.1z M40.1,30.9h1.7v-2.3h-1.7V30.9z M40,39.7c-2.9,0-5.3,2.6-5.3,5.5h-0.1V53h10.6v-8.1
			C45.1,42,42.8,39.7,40,39.7z M45.2,42.7v-3h-2.9C43.5,40.3,44.6,41.4,45.2,42.7z M18.1,22.9h1.7v-2.5h-1.7V22.9z M15.9,19.9h1.7
			v-2.3h-1.7C15.9,17.6,15.9,19.9,15.9,19.9z M34.6,58.4h10.6v-4.9H34.6V58.4z M37.8,39.7h-3.1V43C35.2,41.6,36.3,40.3,37.8,39.7z
			 M12.5,25.4h10.6V14.8H12.5V25.4z M15.4,17.2h4.9v6.2h-4.9V17.2z M15.9,22.9h1.7v-2.5h-1.7C15.9,20.4,15.9,22.9,15.9,22.9z
			 M36.5,6.6l0.4-1.1h-2.1l-0.1-0.2C34.6,5.1,33.2,1,28.8,1s-5.9,4.2-5.9,4.3l-0.1,0.2h-2.1l0.4,1.1C21.1,6.6,36.5,6.6,36.5,6.6z
			 M37.9,33.9h1.7v-2.4h-1.7V33.9z M37.9,30.9h1.7v-2.3h-1.7V30.9z M34.6,39.2h10.6v-2.3H34.6V39.2z M18.1,19.9h1.7v-2.3h-1.7V19.9z
			 M12.5,36.5h10.6V25.9H12.5V36.5z M15.4,28.1h4.9v6.2h-4.9V28.1z M40.1,33.9h1.7v-2.4h-1.7V33.9z M15.9,33.9h1.7v-2.4h-1.7
			C15.9,31.5,15.9,33.9,15.9,33.9z"/>
	</g>
</g>
<g>
	<path class="st0" d="M80.2,37v2.2h-6.9V37h2.1v-8.3h-2.1v-2.3h6.8v2.2h-1.7v4.1l4.5-4.1h-1.7v-2.2h6.1v2.2h-1.7L81.8,32l4.7,5h1.3
		v2.2h-6.4V37h1.4l-3-3.2l-1.5,1.3v2h1.9V37z"/>
	<path class="st0" d="M97.1,36.1l1,0.6c-0.8,1.8-2.2,2.7-4.1,2.7c-3,0-5-2.2-5-5c0-3.1,2.5-4.9,5-4.9c3.1,0,4.7,2.1,4.5,5.3h-6.7
		c0.1,1.8,1.3,2.7,2.8,2.7C95.9,37.6,96.7,37.1,97.1,36.1z M94.2,31.4c-1.2,0-2.1,0.9-2.2,2.1h4.3C96.3,32.2,95.5,31.4,94.2,31.4z"
		/>
	<path class="st0" d="M105.6,39.3h-1.8l-3.2-7.1h-1V30h5.3v2.2h-1.3c0.5,1.4,1,3,1.3,4.3c0.6-2,1.5-4.5,2.2-6.5h1.5
		c0.6,1.8,1.7,4.5,2.2,6.5c0.3-1.3,0.8-2.9,1.2-4.3h-1.3V30h4.7v2.2h-1.1l-2.8,7.1h-1.8c-0.7-1.8-1.5-4.1-2-5.9
		C107,35.2,106.2,37.5,105.6,39.3z"/>
	<path class="st0" d="M73.3,58.3v-2.2h2.1v-8.3h-2.1v-2.2H81c2.7,0,5.1,1.4,5.1,4c0,2.1-1.7,4-5.3,4h-2.5v2.6h2.3v2.2L73.3,58.3
		L73.3,58.3z M78.4,47.8v3.7h2.1c1.7,0,2.5-0.8,2.5-1.9c0-1-0.6-1.9-2.2-1.9h-2.4V47.8z"/>
	<path class="st0" d="M92.8,52.1c0-1.6-0.7-2.2-1.9-2.2c-0.6,0-1.1,0.1-1.5,0.4c0.7,0.1,1,0.6,1,1.2c0,0.8-0.7,1.3-1.5,1.3
		c-0.7,0-1.5-0.5-1.5-1.5c0-1.5,1.7-2.5,4-2.5c2.6,0,4.2,0.9,4.2,3.3c0,1.6-0.2,2.7-0.2,3.9c0,0.4,0.1,0.6,0.4,0.6s0.5-0.1,0.5-0.7
		v-0.8h1.1v0.7c0,1.7-0.6,2.8-2.1,2.8c-0.9,0-1.7-0.4-1.7-1.9c0-0.4,0-0.8,0.1-1.1h-0.4c-0.4,2.1-1.9,3.2-3.5,3.2
		c-1.7,0-3-0.9-3-2.7c0-1.6,1.5-3,4.4-3c0.5,0,1,0,1.5,0.1C92.7,52.7,92.8,52.4,92.8,52.1z M91.7,53.8c-1.5,0-2.1,0.8-2.1,1.5
		s0.5,1.1,1.2,1.1c0.8,0,1.8-0.5,1.9-2.5C92.3,53.8,92,53.8,91.7,53.8z"/>
	<path class="st0" d="M104,56.1v2.2h-5.7v-2.2h1.7v-8.3h-1.7v-2.2h4.3v10.5H104z"/>
	<path class="st0" d="M111.4,52.1c0-1.6-0.7-2.2-1.9-2.2c-0.6,0-1.1,0.1-1.5,0.4c0.7,0.1,1,0.6,1,1.2c0,0.8-0.7,1.3-1.5,1.3
		c-0.7,0-1.5-0.5-1.5-1.5c0-1.5,1.7-2.5,4-2.5c2.6,0,4.2,0.9,4.2,3.3c0,1.6-0.2,2.7-0.2,3.9c0,0.4,0.1,0.6,0.4,0.6
		c0.2,0,0.5-0.1,0.5-0.7v-0.8h1.1v0.7c0,1.7-0.6,2.8-2.1,2.8c-0.9,0-1.7-0.4-1.7-1.9c0-0.4,0-0.8,0.1-1.1h-0.2
		c-0.4,2.1-1.9,3.2-3.5,3.2c-1.7,0-3-0.9-3-2.7c0-1.6,1.5-3,4.4-3c0.5,0,1,0,1.5,0.1C111.4,52.7,111.4,52.4,111.4,52.1z M110.3,53.8
		c-1.5,0-2.1,0.8-2.1,1.5s0.5,1.1,1.2,1.1c0.8,0,1.8-0.5,1.9-2.5C111,53.8,110.6,53.8,110.3,53.8z"/>
	<path class="st0" d="M121.5,50c-1.6,0-2.6,1.6-2.6,3.1c0,1.8,1.1,3,2.7,3c0.9,0,1.8-0.4,2.4-1.4l1.5,1.6c-0.9,1.5-2.3,2.2-4.2,2.2
		c-2.9,0-4.8-2.3-4.8-4.9c0-3.1,2.4-5,5-5c1.9,0,3.5,0.8,3.5,2.4c0,1-0.8,1.8-1.8,1.8s-1.7-0.5-1.7-1.6c0-0.5,0.2-1,0.6-1.2
		C121.9,50.1,121.8,50,121.5,50z"/>
	<path class="st0" d="M134.2,55.2l1,0.6c-0.8,1.8-2.2,2.7-4.1,2.7c-3,0-5-2.2-5-5c0-3.1,2.5-4.9,5-4.9c3.1,0,4.7,2.1,4.5,5.3h-6.7
		c0.1,1.8,1.3,2.7,2.8,2.7C132.9,56.7,133.8,56.2,134.2,55.2z M131.3,50.5c-1.2,0-2.1,0.9-2.2,2.1h4.3
		C133.3,51.3,132.6,50.5,131.3,50.5z"/>
</g>
</svg>
