<?xml version="1.0" encoding="utf-8"?>
<!-- Generator: Adobe Illustrator 23.0.2, SVG Export Plug-In . SVG Version: 6.00 Build 0)  -->
<svg version="1.1" id="Layer_1" xmlns="http://www.w3.org/2000/svg" xmlns:xlink="http://www.w3.org/1999/xlink" x="0px" y="0px"
	 viewBox="0 0 222.2 72.8" style="enable-background:new 0 0 222.2 72.8;" xml:space="preserve">
<style type="text/css">
	.st0{fill:#FFFFFF;}
</style>
<g>
	<g>
		<path class="st0" d="M1.3,71.8h12.1V61.2H1.3V71.8z M13.9,71.8H26V61.2H13.9V71.8z M26.6,71.8h12.1V61.2H26.6V71.8z M39.1,71.8
			h12.1V61.2H39.1V71.8z M51.8,71.8h12.1V61.2H51.8V71.8z M51.8,49.7h12.1V39.1H51.8V49.7z M1.3,60.8h12.1V50.2H1.3V60.8z
			 M52.4,16.8c0,0-0.1-1.9,1.4-2.9l0.5-0.2c1.4-0.8,1.7-1.1,2.4-1.9c0.7-0.8,0.7-1.2,0.7-2.2h0.3V8.4h-0.2c-0.1,0-0.8-0.1-0.8-0.7
			C56.6,7.3,57,7,57.1,7h0.2l0.2-0.9h0.6L58.3,7h0.2C58.7,7,59,7.3,59,7.7c0,0.6-0.6,0.7-0.7,0.7h-0.2v1.2h0.5c0,1,0.7,2.1,0.7,2.2
			c0.7,0.8,1,1.1,2.4,1.9l0.5,0.2c1.5,1,1.4,2.8,1.4,2.8l0.6,0.1c0-0.1,0.1-2.1-1.6-3.3l-0.7-0.2c-1.4-0.8-1.6-1-2.3-1.8
			c0,0-0.6-1.1-0.6-2V9h-0.5V8.7c0.5-0.1,0.9-0.4,0.9-1.1c0-0.5-0.5-1-0.8-1.1l-0.2-1h-0.5V4.7h0.8V4.2h-0.8V1h-0.5v3.2h-0.7v0.5
			h0.7v0.8H57l-0.2,1c-0.5,0.1-0.8,0.6-0.8,1.1c0,0.7,0.5,1.1,0.9,1.1V9h-0.3v0.5c0,0.9,0,1.2-0.6,1.9c-0.6,0.8-0.9,1-2.3,1.8
			l-0.5,0.2c-1.7,1.1-1.6,3.2-1.6,3.3L52.4,16.8z M1.8,16.8c0,0-0.1-1.9,1.4-2.9l0.5-0.2C5,12.9,5.3,12.6,6,11.8
			c0.6-0.8,0.7-1.2,0.7-2.2H7V8.4H6.8c-0.1,0-0.7-0.1-0.7-0.7C6.1,7.3,6.4,7,6.6,7h0.2L7,6.1h0.6L7.8,7h0.1C8,7,8.4,7.3,8.4,7.7
			c0,0.6-0.6,0.7-0.7,0.7H7.5v1.2h0.5c0,1,0.7,2.1,0.7,2.2c0.7,0.8,1,1.1,2.4,1.9l0.5,0.2c1.5,1,1.4,2.8,1.4,2.8l0.6,0.1
			c0-0.1,0.1-2.1-1.6-3.3l-0.5-0.2c-1.3-0.8-1.6-1-2.3-1.7c0,0-0.6-1-0.6-1.8V9.3H8V9C8.6,8.9,9,8.5,9,7.9c0-0.5-0.5-1-0.8-1.1
			L7.9,5.7H7.5V4.9h0.8V4.4H7.5V1.2H6.9v3.2H6.2v0.5h0.7v0.8H6.4l-0.2,1C5.8,6.8,5.4,7.3,5.4,7.8c0,0.7,0.5,1.1,0.9,1.1v0.3H5.9v0.5
			c0,0.8-0.1,1.1-0.6,1.8c-0.6,0.8-0.9,1-2.3,1.8l-0.5,0.2C0.8,14.6,1,16.7,1,16.8L1.8,16.8z M48.1,28.1h-2.6v-3.3h-3.8v3.3h-2.5
			v-3.3h-3.8v3.3h-2.6v-3.3H29v3.3h-2.4v10.6h12.1V28.1h-2.6v-2.8h2.6v2.8h0.5v10.5h12.1V28.1h-2.6v-2.8h2.9v-0.5h-3.4L48.1,28.1
			L48.1,28.1z M32.3,28.1h-2.6v-2.8h2.6V28.1z M45,28.1h-2.6v-2.8H45V28.1z M22.8,28.1h-2.6v-3.3h-3.8v3.3h-2.6v10.6h12.1V28.1h0.7
			v-3.3h-3.8V28.1z M19.7,28.1h-2.6v-2.8h2.6V28.1z M23.4,25.3H26v2.8h-2.6V25.3z M13.9,49.7H26V39.1H13.9V49.7z M19,43
			c0-0.5,0.5-0.8,0.9-0.8c0.5,0,0.9,0.4,0.9,0.8v3.7H19C19,46.8,19,43,19,43z M1.3,49.7h12.1V39.1H1.3V49.7z M6.3,43
			c0-0.5,0.5-0.8,0.9-0.8s0.9,0.4,0.9,0.8v3.7H6.2V43H6.3z M26.6,60.8h12.1V50.2H26.6V60.8z M31.6,54c0-0.5,0.5-0.8,0.9-0.8
			c0.6,0,0.9,0.4,0.9,0.8v3.7h-1.8V54L31.6,54z M13.9,60.8H26V50.2H13.9V60.8z M18,53.8c0-1,0.9-1.7,1.9-1.7s1.9,0.8,1.9,1.7v5h-3.8
			C18,58.8,18,53.8,18,53.8z M39.1,60.8h12.1V50.2H39.1V60.8z M44.4,54c0-0.5,0.5-0.8,0.9-0.8c0.6,0,0.9,0.4,0.9,0.8v3.7h-1.8
			L44.4,54L44.4,54z M51.8,60.8h12.1V50.2H51.8V60.8z M56.9,54c0-0.5,0.5-0.8,0.9-0.8s0.9,0.4,0.9,0.8v3.7h-1.9V54H56.9z M1.3,27.6
			h12.1V17H1.3V27.6z M9.1,20.4c0-0.3,0.2-0.5,0.6-0.5c0.3,0,0.6,0.2,0.6,0.5v2.4H9C9.1,22.8,9.1,20.4,9.1,20.4z M4.3,20.4
			c0-0.3,0.2-0.5,0.6-0.5c0.3,0,0.6,0.2,0.6,0.5v2.4H4.2C4.3,22.8,4.3,20.4,4.3,20.4z M51.8,17v10.6h12.1V17H51.8z M54.8,22.8v-2.4
			c0-0.3,0.2-0.5,0.6-0.5c0.3,0,0.6,0.2,0.6,0.5v2.4H54.8z M59.7,22.8v-2.4c0-0.3,0.2-0.5,0.6-0.5c0.3,0,0.6,0.2,0.6,0.5v2.4H59.7z
			 M1.3,38.6h12.1V28.1H1.3V38.6z M9.1,30.1c0-0.3,0.2-0.5,0.6-0.5c0.3,0,0.6,0.2,0.6,0.5v2.4H9C9.1,32.6,9.1,30.1,9.1,30.1z
			 M4.3,30.1c0-0.3,0.2-0.5,0.6-0.5c0.3,0,0.6,0.2,0.6,0.5v2.4H4.2C4.3,32.6,4.3,30.1,4.3,30.1z M51.8,38.6h12.1V28.1H51.8V38.6z
			 M59.7,30.1c0-0.3,0.2-0.5,0.6-0.5c0.3,0,0.6,0.2,0.6,0.5v2.4h-1.1V30.1L59.7,30.1z M54.8,30.1c0-0.3,0.2-0.5,0.6-0.5
			c0.3,0,0.6,0.2,0.6,0.5v2.4h-1.3v-2.4H54.8z M26.6,49.7h12.1V39.1H26.6V49.7z M31.6,43c0-0.5,0.5-0.8,0.9-0.8
			c0.6,0,0.9,0.4,0.9,0.8v3.7h-1.9V43H31.6z M39.1,49.7h12.1V39.1H39.1V49.7z M44.4,43c0-0.5,0.5-0.8,0.9-0.8c0.6,0,0.9,0.4,0.9,0.8
			v3.7h-1.9V43H44.4z"/>
	</g>
</g>
<g>
	<path class="st0" d="M94.9,29.9v11.7H98v3.1H87.7v-3.1h3.1V29.9h-2c-2.1,0-2.7,1-2.7,2.7v1.7h-2.8v-7.6h19v7.6h-2.8v-1.7
		c0-1.8-0.7-2.7-2.7-2.7C96.8,29.9,94.9,29.9,94.9,29.9z"/>
	<path class="st0" d="M110.1,45.1c-4.1,0-7.3-3.1-7.3-7c0-4.1,3.2-6.9,7.3-6.9c4.1,0,7.3,3,7.3,6.9S114.1,45.1,110.1,45.1z
		 M110.1,42.7c2.4,0,3-0.7,3-4.4c0-3.2-0.6-4.4-3-4.4c-2.2,0-3.1,0.8-3.1,4.4C107,41.7,107.7,42.7,110.1,42.7z"/>
	<path class="st0" d="M126.4,44.8h-2.5l-4.5-10h-1.4v-3.1h7.5v3.1h-1.8c0.7,2,1.4,4.2,1.8,6c0.8-2.8,2.1-6.3,3.1-9.1h2.1
		c0.8,2.5,2.4,6.3,3.1,9.1c0.4-1.8,1.1-4.1,1.7-6h-1.8v-3.1h6.6v3.1h-1.5l-3.9,10h-2.5c-1-2.5-2.1-5.8-2.8-8.3
		C128.3,39.1,127.3,42.3,126.4,44.8z"/>
	<path class="st0" d="M151.8,40.3l1.4,0.8c-1.1,2.5-3.1,3.8-5.8,3.8c-4.2,0-7-3.1-7-7c0-4.4,3.5-6.9,7-6.9c4.4,0,6.6,3,6.3,7.5h-9.4
		c0.1,2.5,1.8,3.8,3.9,3.8C150.1,42.4,151.2,41.9,151.8,40.3z M147.7,33.9c-1.7,0-3,1.3-3.1,3h6C150.7,34.8,149.6,33.9,147.7,33.9z"
		/>
	<path class="st0" d="M164.6,31.3c2.1,0,3.2,1.3,3.2,3c0,1.5-1,2.7-2.5,2.7c-1.4,0-2.2-1-2.2-2.1c0-0.7,0.3-1.1,0.7-1.4
		c-0.3,0-0.4,0.1-0.8,0.1c-1,0.4-2,1.8-2,3.9v4.1h3.1v3.1h-9v-3.1h2.2v-6.7h-2.4v-3.1h5.3c0,1-0.1,2.8-0.3,4.1h0.3
		C160.5,33.2,162.4,31.3,164.6,31.3z"/>
	<path class="st0" d="M90.4,72c-4.1,0-7.3-3.1-7.3-7c0-4.1,3.2-6.9,7.3-6.9c4.1,0,7.3,3,7.3,6.9S94.4,72,90.4,72z M90.4,69.6
		c2.4,0,3-0.7,3-4.4c0-3.2-0.6-4.4-3-4.4c-2.2,0-3.1,0.8-3.1,4.4C87.4,68.6,88,69.6,90.4,69.6z"/>
	<path class="st0" d="M107.9,68.4v3.1h-8.7v-3.1h2.4v-6.7h-3v-1.5h1.3c1.5,0,2.1-0.8,2.1-2.1c0-3.4,2.2-4.8,4.6-4.8
		c2.4,0,4.1,1.1,4.1,3.2c0,1.1-0.8,2-2.1,2c-1.1,0-2-0.6-2-1.5c0-0.7,0.4-1.4,1.1-1.5c-0.3-0.1-0.6-0.3-1.1-0.3
		c-1.4,0-2.2,1.1-2.2,2.4c0,1.1,0.7,2.4,2.7,2.4h2.1V62h-3.8v6.7h2.5V68.4z"/>
	<path class="st0" d="M125.4,56.8v11.7h4.5c2.1,0,2.7-1,2.7-2.8v-2.1h2.8v8h-17v-3.1h3V56.8h-3v-3.1h10.1v3.1H125.4z"/>
	<path class="st0" d="M144.2,72c-4.1,0-7.3-3.1-7.3-7c0-4.1,3.2-6.9,7.3-6.9c4.1,0,7.3,3,7.3,6.9C151.4,68.9,148.3,72,144.2,72z
		 M144.2,69.6c2.4,0,3-0.7,3-4.4c0-3.2-0.6-4.4-3-4.4c-2.2,0-3.1,0.8-3.1,4.4C141.1,68.6,141.8,69.6,144.2,69.6z"/>
	<path class="st0" d="M157.7,63.4c0.6-3.5,2.5-5.3,5.3-5.3s4.4,1.7,4.4,4.5v5.8h1.7v3.1h-7.5v-3.1h2.1v-4.1c0-2.2-0.7-2.8-2.1-2.8
		c-1.7,0-3,1-3,2.8v3.9h2v3.1h-8v-3.1h2.4v-6.7h-2.4v-3.1h5.2c0,1.1-0.1,3.7-0.3,4.8h0.1V63.4z"/>
	<path class="st0" d="M181.3,68.6L181.3,68.6c-0.8,1.8-2.4,3.4-5.5,3.4c-3.4,0-5.9-3-5.9-6.9s2.7-6.9,6-6.9c2.5,0,4.1,1.1,4.8,2.8
		h0.1c-0.1-0.8-0.1-1.8-0.1-2.8v-1.4h-2.7v-3.1h6v14.9h2.5v3.1h-5.5C181.2,70.6,181.2,69.7,181.3,68.6z M174,64.9
		c0,2.5,1.1,4.4,3.1,4.4c2.1,0,3.4-1.5,3.4-4.4c0-2.7-1.1-4.1-3.2-4.1C175.3,60.9,174,62.4,174,64.9z"/>
	<path class="st0" d="M195.1,72c-4.1,0-7.3-3.1-7.3-7c0-4.1,3.2-6.9,7.3-6.9c4.1,0,7.3,3,7.3,6.9C202.3,68.9,199.2,72,195.1,72z
		 M195.1,69.6c2.4,0,3-0.7,3-4.4c0-3.2-0.6-4.4-3-4.4c-2.2,0-3.1,0.8-3.1,4.4C192,68.6,192.7,69.6,195.1,69.6z"/>
	<path class="st0" d="M208.6,63.4c0.6-3.5,2.5-5.3,5.3-5.3s4.4,1.7,4.4,4.5v5.8h1.7v3.1h-7.5v-3.1h2.1v-4.1c0-2.2-0.7-2.8-2.1-2.8
		c-1.7,0-3,1-3,2.8v3.9h2v3.1h-8v-3.1h2.4v-6.7h-2.4v-3.1h5.2c0,1.1-0.1,3.7-0.3,4.8h0.1V63.4z"/>
</g>
</svg>
