<?xml version="1.0" encoding="utf-8"?>
<!-- Generator: Adobe Illustrator 25.1.0, SVG Export Plug-In . SVG Version: 6.00 Build 0)  -->
<svg version="1.1" id="small_white" xmlns="http://www.w3.org/2000/svg" xmlns:xlink="http://www.w3.org/1999/xlink" x="0px"
	 y="0px" viewBox="0 0 646.45 202.69" style="enable-background:new 0 0 646.45 202.69;" xml:space="preserve">
<style type="text/css">
	.st0{fill:#FFFFFF;}
</style>
<g>
	<g>
		
			<rect x="85.21" y="76.65" transform="matrix(0.7071 -0.7071 0.7071 0.7071 -33.3757 92.6842)" class="st0" width="19.96" height="19.96"/>
		<circle class="st0" cx="74.88" cy="73.23" r="6.33"/>
		<path class="st0" d="M64.09,65.46c0-3.49-2.83-6.33-6.33-6.33c-3.49,0-6.33,2.83-6.33,6.33c0,3.5,2.83,6.33,6.33,6.33
			S64.09,68.96,64.09,65.46z"/>
		<circle class="st0" cx="39.76" cy="60.8" r="6.33"/>
		<path class="st0" d="M21.48,58.7c-3.49,0-6.33,2.83-6.33,6.33c0,3.49,2.83,6.33,6.33,6.33c3.49,0,6.33-2.83,6.33-6.33
			C27.81,61.53,24.97,58.7,21.48,58.7z"/>
		<path class="st0" d="M9.56,84.46c3.5,0,6.33-2.83,6.33-6.33c0-3.49-2.83-6.33-6.33-6.33c-3.49,0-6.33,2.83-6.33,6.33
			S6.06,84.46,9.56,84.46z"/>
		<path class="st0" d="M12.66,95.61c0-3.49-2.83-6.33-6.33-6.33S0,92.11,0,95.61c0,3.49,2.83,6.33,6.33,6.33
			S12.66,99.11,12.66,95.61z"/>
		<path class="st0" d="M17.37,112.19c0-3.49-2.83-6.33-6.33-6.33c-3.49,0-6.33,2.83-6.33,6.33s2.83,6.33,6.33,6.33
			C14.54,118.52,17.37,115.68,17.37,112.19z"/>
		<circle class="st0" cx="20.24" cy="126.06" r="6.33"/>
		<path class="st0" d="M97.4,35.64v13.44h13.45C109.87,42.12,104.36,36.61,97.4,35.64z"/>
		<path class="st0" d="M110.84,53.5H79.53c1.08,7.68,7.67,13.6,15.65,13.6C103.17,67.1,109.77,61.18,110.84,53.5z"/>
		<path class="st0" d="M92.98,35.64c-6.96,0.98-12.47,6.48-13.44,13.44h13.44V35.64z"/>
		<polygon class="st0" points="86.94,29.88 103.43,29.88 96.73,16.49 110.13,23.19 110.13,6.7 96.73,13.4 103.43,0 86.94,0 
			93.64,13.4 80.25,6.7 80.25,23.19 93.64,16.49 		"/>
		<path class="st0" d="M45.49,94.59c1.78-0.91,2.99-2.76,2.99-4.89c0-3.03-2.46-5.49-5.49-5.49s-5.49,2.46-5.49,5.49
			c0,2.13,1.21,3.97,2.98,4.89c-2.55,2.8-6.87,4.94-6.87,9.23v98.87h18.76v-98.87C52.36,99.52,48.03,97.38,45.49,94.59z"/>
		<circle class="st0" cx="115.49" cy="73.23" r="6.33"/>
		<circle class="st0" cx="132.61" cy="65.46" r="6.33"/>
		<circle class="st0" cx="150.61" cy="60.8" r="6.33"/>
		<path class="st0" d="M168.89,71.36c3.49,0,6.33-2.83,6.33-6.33c0-3.49-2.83-6.33-6.33-6.33c-3.49,0-6.33,2.83-6.33,6.33
			C162.57,68.52,165.4,71.36,168.89,71.36z"/>
		<path class="st0" d="M180.82,84.46c3.49,0,6.33-2.83,6.33-6.33c0-3.49-2.83-6.33-6.33-6.33c-3.49,0-6.33,2.83-6.33,6.33
			S177.32,84.46,180.82,84.46z"/>
		<path class="st0" d="M184.04,89.28c-3.49,0-6.33,2.83-6.33,6.33s2.83,6.33,6.33,6.33c3.49,0,6.33-2.83,6.33-6.33
			S187.54,89.28,184.04,89.28z"/>
		<circle class="st0" cx="179.33" cy="112.19" r="6.33"/>
		<circle class="st0" cx="170.13" cy="126.06" r="6.33"/>
		<path class="st0" d="M95.19,130.61c-11.56,6.38-21.79,13.29-21.79,22.55v27.94h10.47v-22.34c0-6.37,5.49-10.69,11.32-13.7
			c5.83,3.01,11.32,7.33,11.32,13.7v22.34h10.47v-27.94C116.98,143.9,106.74,136.99,95.19,130.61z"/>
		<path class="st0" d="M125.59,103.81h-9.29v-6.34h-7.15v16.84H81.2V97.47h-7.15v6.34h-9.29v-6.34h-7.14v94.43h10.47v-38.73
			c0-11.86,11.83-20.15,27.07-28.46c15.25,8.31,27.07,16.61,27.07,28.46v38.73h10.47V97.47h-7.14v6.34H125.59z"/>
		<path class="st0" d="M149.9,94.58c1.77-0.91,2.98-2.76,2.98-4.89c0-3.03-2.46-5.49-5.49-5.49s-5.49,2.46-5.49,5.49
			c0,2.13,1.22,3.98,2.99,4.89c-2.55,2.8-6.87,4.94-6.87,9.22v98.87h18.76V103.8C156.77,99.52,152.44,97.38,149.9,94.58z"/>
	</g>
	<polygon class="st0" points="314.64,124.99 322.74,124.99 322.74,93.7 330.92,93.7 332.66,86.74 306.01,86.74 306.01,93.7 
		314.64,93.7 	"/>
	<polygon class="st0" points="224.15,109.34 235.22,109.34 235.22,124.99 243.32,124.99 243.32,86.74 235.22,86.74 235.22,102.17 
		224.15,102.17 224.15,86.74 216.05,86.74 216.05,124.99 224.15,124.99 	"/>
	<rect x="255.31" y="86.74" class="st0" width="8.1" height="38.25"/>
	<rect x="417.34" y="86.74" class="st0" width="8.1" height="38.25"/>
	<path class="st0" d="M404.91,99.73v-1.58c-0.02-8.48-5.19-11.38-13.37-11.41h-12.82v38.25h8.1v-13.58h4.91l5.65,13.58h8.68
		l-6.92-15.11C402.97,108.09,404.91,104.68,404.91,99.73z M396.75,99.62c0,3.82-2.08,5.04-5.75,5.05h-4.18V93.43H391
		c3.73,0.02,5.75,1.23,5.75,5.05V99.62z"/>
	<path class="st0" d="M299.36,114.23c0.02-7.02-3.27-9.5-9.86-11.71l-3.05-1.03c-2.95-0.99-5.13-1.96-5.13-4.42
		c-0.04-2.4,1.63-3.85,4.63-3.85c2.89,0,4.52,1.86,4.39,4.83h8.13c0.31-7.85-4.66-11.74-12.49-11.74c-7.19,0-12.51,3.57-12.5,10.76
		c0.02,6.94,5.12,9.76,9.54,11.25l3.33,1.09c3.65,1.24,5.17,2.25,5.17,5.15c-0.01,2.74-2.5,3.96-4.95,3.96
		c-3.93,0-5.52-2.11-5.4-6.02h-7.86c-0.25,8.71,3.98,12.92,13.32,12.92C294.59,125.42,299.34,121.24,299.36,114.23z"/>
	<path class="st0" d="M465.17,112.26h-8.14c-0.24,3.79-2.44,5.95-6.27,5.93c-4.26-0.03-6.34-2.57-6.34-7.76v-9.18
		c0-2.52,0.49-4.45,1.46-5.72c1.04-1.36,2.64-2.03,4.88-2.05c3.89-0.02,5.99,2.2,6.31,6.27h8.13c-0.64-8.57-5.77-13.45-14.42-13.45
		c-9.64,0.01-14.52,5.89-14.51,15.49v8.09c-0.01,9.56,4.97,15.53,14.49,15.53C459.48,125.41,464.45,120.79,465.17,112.26z"/>
	<path class="st0" d="M368.74,109.49v-7.28c0-10.32-4.86-15.91-14.78-15.91c-9.72,0-14.78,5.46-14.78,15.91v7.28
		c0,10.32,4.86,15.91,14.78,15.91C363.75,125.4,368.74,119.95,368.74,109.49z M360.55,110.22c0,4.79-1.6,7.92-6.59,7.92
		c-4.86,0-6.59-3-6.59-7.92v-8.74c0-4.73,1.6-7.99,6.59-7.99c4.86,0,6.59,2.99,6.59,7.99V110.22z"/>
	<polygon class="st0" points="490.97,142.95 482.87,142.95 482.87,181.2 503.23,181.2 504.98,174.24 490.97,174.24 	"/>
	<path class="st0" d="M452.36,142.95l-9.39,38.25h8.29l1.77-8.04h10.15l1.83,8.04h8.34l-9.56-38.25H452.36z M454.51,166.41
		l3.51-15.93l3.62,15.93H454.51z"/>
	<polygon class="st0" points="588.27,181.2 610.96,181.2 610.96,174.24 596.37,174.24 596.37,165.34 607.87,165.34 609.61,158.38 
		596.37,158.38 596.37,149.91 610.96,149.91 610.96,142.95 588.27,142.95 	"/>
	<polygon class="st0" points="369.92,142.95 361.82,142.95 361.82,181.2 382.18,181.2 383.92,174.24 369.92,174.24 	"/>
	<path class="st0" d="M242.24,155.94v-1.58c-0.02-8.48-5.19-11.38-13.37-11.41h-12.82v38.25h8.1v-13.58h4.91l5.65,13.58h8.68
		l-6.92-15.11C240.3,164.3,242.24,160.89,242.24,155.94z M234.08,155.83c0,3.82-2.08,5.04-5.75,5.05h-4.18v-11.24h4.18
		c3.73,0.02,5.75,1.23,5.75,5.05V155.83z"/>
	<polygon class="st0" points="303.58,159.47 296.85,142.95 288,142.95 299.37,167.82 299.37,181.2 307.53,181.2 307.53,167.93 
		318.72,142.95 309.93,142.95 	"/>
	<path class="st0" d="M331.3,142.95l-9.39,38.25h8.29l1.77-8.04h10.15l1.83,8.04h8.34l-9.56-38.25H331.3z M333.46,166.41l3.51-15.93
		l3.62,15.93H333.46z"/>
	<path class="st0" d="M520.86,142.95l-9.39,38.25h8.29l1.77-8.04h10.15l1.83,8.04h8.34l-9.56-38.25H520.86z M523.01,166.41
		l3.51-15.93l3.62,15.93H523.01z"/>
	<path class="st0" d="M423.04,142.95h-12.23v38.25h8.1v-11.89h4.4c8.22,0.02,13.79-3.45,13.8-11.9v-2.78
		C437.11,145.87,431.47,142.97,423.04,142.95z M428.96,157.25c0,4.12-2.23,5.42-6.19,5.43h-3.85v-13.04h3.85
		c3.97,0.02,6.18,1.24,6.19,5.32V157.25z"/>
	<path class="st0" d="M559.22,151.74c1.04-1.36,2.64-2.03,4.88-2.05c3.89-0.02,5.99,2.2,6.31,6.27h8.13
		c-0.64-8.57-5.77-13.45-14.42-13.45c-9.64,0.01-14.52,5.89-14.51,15.49v8.09c-0.01,9.56,4.97,15.53,14.49,15.53
		c8.72,0,13.7-4.61,14.41-13.15h-8.14c-0.24,3.79-2.44,5.95-6.27,5.93c-4.26-0.03-6.34-2.57-6.34-7.76v-9.18
		C557.76,154.93,558.25,153.01,559.22,151.74z"/>
	<path class="st0" d="M267.15,142.51c-9.72,0-14.78,5.46-14.78,15.91v7.28c0,10.32,4.86,15.91,14.78,15.91
		c9.79,0,14.78-5.46,14.78-15.91v-7.28C281.93,148.11,277.07,142.51,267.15,142.51z M273.74,166.43c0,4.79-1.6,7.92-6.59,7.92
		c-4.86,0-6.59-3-6.59-7.92v-8.74c0-4.73,1.6-7.99,6.59-7.99c4.86,0,6.59,3,6.59,7.99V166.43z"/>
	<path class="st0" d="M636.61,158.73l-3.05-1.03c-2.95-0.99-5.13-1.96-5.13-4.42c-0.04-2.4,1.63-3.85,4.63-3.85
		c2.89,0,4.52,1.86,4.39,4.83h8.13c0.31-7.85-4.66-11.74-12.49-11.74c-7.19,0-12.51,3.57-12.5,10.76c0.02,6.94,5.12,9.76,9.54,11.25
		l3.32,1.09c3.65,1.24,5.17,2.25,5.17,5.15c-0.01,2.74-2.5,3.96-4.95,3.96c-3.93,0-5.52-2.11-5.4-6.02h-7.86
		c-0.25,8.71,3.98,12.92,13.32,12.92c7.95,0,12.7-4.18,12.72-11.2C646.48,163.42,643.2,160.94,636.61,158.73z"/>
</g>
</svg>